<?xml version="1.0" encoding="utf-8"?>
<!-- Generator: Adobe Illustrator 16.0.0, SVG Export Plug-In . SVG Version: 6.00 Build 0)  -->
<!DOCTYPE svg PUBLIC "-//W3C//DTD SVG 1.1//EN" "http://www.w3.org/Graphics/SVG/1.1/DTD/svg11.dtd">
<svg version="1.1" id="Capa_1" xmlns="http://www.w3.org/2000/svg" xmlns:xlink="http://www.w3.org/1999/xlink" x="0px" y="0px"
	 width="480px" height="480px" viewBox="508.347 0 480 480" enable-background="new 508.347 0 480 480" xml:space="preserve">
<path opacity="0.75" fill="#A61414" enable-background="new    " d="M460,449c0,6.627-5.373,12-12,12H32c-6.627,0-12-5.373-12-12V33
	c0-6.627,5.373-12,12-12h416c6.627,0,12,5.373,12,12V449z"/>
<text transform="matrix(1.0953 0 0 1 42.001 210.3564)" fill="#FFFFFF" font-family="'HannotateTC-W5-83pv-RKSJ-H'" font-size="182.6043">ア</text>
<text transform="matrix(1.0953 0 0 1 42.001 383.8311)" fill="#FFFFFF" font-family="'HannotateTC-W5-83pv-RKSJ-H'" font-size="182.6043">ナ</text>
<text transform="matrix(1.0953 0 0 1 227.001 247.1865)" fill="#FFFFFF" font-family="'HannotateTC-W5-83pv-RKSJ-H'" font-size="182.6043">デ</text>
<text transform="matrix(1.0953 0 0 1 227.001 344.1865)" fill="#FFFFFF" font-family="'HannotateTC-W5-83pv-RKSJ-H'" font-size="182.6043">ィ</text>
<text transform="matrix(1 0 0 1 33 584)" font-family="'AauxNext-Hairline'" font-size="150">©</text>
<text transform="matrix(1 0 0 1 151.1992 584)" font-family="'AlejandroSans-Regular'" font-size="150"> 2021</text>
<path opacity="0.75" fill="#A61414" enable-background="new    " d="M968.347,449c0,6.627-5.373,12-12,12h-416
	c-6.627,0-12-5.373-12-12V33c0-6.627,5.373-12,12-12h416c6.627,0,12,5.373,12,12V449z"/>
<text transform="matrix(1.0953 0 0 1 550.3477 210.3564)" fill="#FFFFFF" font-family="'HannotateTC-W5-83pv-RKSJ-H'" font-size="182.6043">ア</text>
<text transform="matrix(1.0953 0 0 1 550.3477 383.8311)" fill="#FFFFFF" font-family="'HannotateTC-W5-83pv-RKSJ-H'" font-size="182.6043">ナ</text>
<text transform="matrix(1.0953 0 0 1 735.3477 247.1865)" fill="#FFFFFF" font-family="'HannotateTC-W5-83pv-RKSJ-H'" font-size="182.6043">デ</text>
<text transform="matrix(1.0953 0 0 1 735.3477 344.1865)" fill="#FFFFFF" font-family="'HannotateTC-W5-83pv-RKSJ-H'" font-size="182.6043">ィ</text>
</svg>
