<?xml version="1.0" encoding="utf-8"?>
<!-- Generator: Adobe Illustrator 16.0.0, SVG Export Plug-In . SVG Version: 6.00 Build 0)  -->
<!DOCTYPE svg PUBLIC "-//W3C//DTD SVG 1.1//EN" "http://www.w3.org/Graphics/SVG/1.1/DTD/svg11.dtd">
<svg version="1.1" id="Layer_1" xmlns="http://www.w3.org/2000/svg" xmlns:xlink="http://www.w3.org/1999/xlink" x="0px" y="0px"
	 width="292.65px" height="70px" viewBox="0 0 292.65 70" enable-background="new 0 0 292.65 70" xml:space="preserve">
<pattern  x="-493.175" y="395.5" width="72" height="72" patternUnits="userSpaceOnUse" id="USGS_17_Lago_seco_arenoso" viewBox="10.624 -72 72 72" overflow="visible">
	<g>
		<polygon fill="none" points="10.624,0 82.624,0 82.624,-72 10.624,-72 		"/>
		<g>
			<polygon fill="none" points="10.625,-72 10.625,0 82.625,0 82.625,-72 			"/>
			<line fill="none" stroke="#1D1D1B" stroke-width="0.5" stroke-linecap="round" x1="31.625" y1="-2.75" x2="31.625" y2="-2.75"/>
			<line fill="none" stroke="#1D1D1B" stroke-width="0.5" stroke-linecap="round" x1="30.625" y1="-8" x2="30.625" y2="-8"/>
			
				<line fill="none" stroke="#1D1D1B" stroke-width="0.5" stroke-linecap="round" x1="30.875" y1="-10.25" x2="30.875" y2="-10.25"/>
			<line fill="none" stroke="#1D1D1B" stroke-width="0.5" stroke-linecap="round" x1="28.625" y1="-12.5" x2="28.625" y2="-12.5"/>
			
				<line fill="none" stroke="#1D1D1B" stroke-width="0.5" stroke-linecap="round" x1="25.875" y1="-10.25" x2="25.875" y2="-10.25"/>
			
				<line fill="none" stroke="#1D1D1B" stroke-width="0.5" stroke-linecap="round" x1="33.375" y1="-19.75" x2="33.375" y2="-19.75"/>
			
				<line fill="none" stroke="#1D1D1B" stroke-width="0.5" stroke-linecap="round" x1="25.875" y1="-22.75" x2="25.875" y2="-22.75"/>
			
				<line fill="none" stroke="#1D1D1B" stroke-width="0.5" stroke-linecap="round" x1="24.625" y1="-23.75" x2="24.625" y2="-23.75"/>
			
				<line fill="none" stroke="#1D1D1B" stroke-width="0.5" stroke-linecap="round" x1="34.625" y1="-26.75" x2="34.625" y2="-26.75"/>
			<line fill="none" stroke="#1D1D1B" stroke-width="0.5" stroke-linecap="round" x1="41.375" y1="-25.5" x2="41.375" y2="-25.5"/>
			<line fill="none" stroke="#1D1D1B" stroke-width="0.5" stroke-linecap="round" x1="41.875" y1="-23" x2="41.875" y2="-23"/>
			<line fill="none" stroke="#1D1D1B" stroke-width="0.5" stroke-linecap="round" x1="39.875" y1="-18" x2="39.875" y2="-18"/>
			<line fill="none" stroke="#1D1D1B" stroke-width="0.5" stroke-linecap="round" x1="42.875" y1="-18" x2="42.875" y2="-18"/>
			<line fill="none" stroke="#1D1D1B" stroke-width="0.5" stroke-linecap="round" x1="43.125" y1="-13.5" x2="43.125" y2="-13.5"/>
			<line fill="none" stroke="#1D1D1B" stroke-width="0.5" stroke-linecap="round" x1="42.375" y1="-11.5" x2="42.375" y2="-11.5"/>
			<line fill="none" stroke="#1D1D1B" stroke-width="0.5" stroke-linecap="round" x1="39.875" y1="-10.5" x2="39.875" y2="-10.5"/>
			<line fill="none" stroke="#1D1D1B" stroke-width="0.5" stroke-linecap="round" x1="42.875" y1="-6.75" x2="42.875" y2="-6.75"/>
			<line fill="none" stroke="#1D1D1B" stroke-width="0.5" stroke-linecap="round" x1="42.625" y1="-2.75" x2="42.625" y2="-2.75"/>
			<line fill="none" stroke="#1D1D1B" stroke-width="0.5" stroke-linecap="round" x1="39.875" y1="-3" x2="39.875" y2="-3"/>
			<line fill="none" stroke="#1D1D1B" stroke-width="0.5" stroke-linecap="round" x1="44.625" y1="-1" x2="44.625" y2="-1"/>
			<line fill="none" stroke="#1D1D1B" stroke-width="0.5" stroke-linecap="round" x1="52.125" y1="-6.75" x2="52.125" y2="-6.75"/>
			<line fill="none" stroke="#1D1D1B" stroke-width="0.5" stroke-linecap="round" x1="56.125" y1="-6.5" x2="56.125" y2="-6.5"/>
			<line fill="none" stroke="#1D1D1B" stroke-width="0.5" stroke-linecap="round" x1="50.875" y1="-10" x2="50.875" y2="-10"/>
			<line fill="none" stroke="#1D1D1B" stroke-width="0.5" stroke-linecap="round" x1="55.625" y1="-11.5" x2="55.625" y2="-11.5"/>
			
				<line fill="none" stroke="#1D1D1B" stroke-width="0.5" stroke-linecap="round" x1="55.625" y1="-13.25" x2="55.625" y2="-13.25"/>
			<line fill="none" stroke="#1D1D1B" stroke-width="0.5" stroke-linecap="round" x1="57.625" y1="-14" x2="57.625" y2="-14"/>
			<line fill="none" stroke="#1D1D1B" stroke-width="0.5" stroke-linecap="round" x1="57.625" y1="-16" x2="57.625" y2="-16"/>
			<line fill="none" stroke="#1D1D1B" stroke-width="0.5" stroke-linecap="round" x1="57.875" y1="-22.5" x2="57.875" y2="-22.5"/>
			<line fill="none" stroke="#1D1D1B" stroke-width="0.5" stroke-linecap="round" x1="49.625" y1="-20.5" x2="49.625" y2="-20.5"/>
			
				<line fill="none" stroke="#1D1D1B" stroke-width="0.5" stroke-linecap="round" x1="60.875" y1="-13.25" x2="60.875" y2="-13.25"/>
			
				<line fill="none" stroke="#1D1D1B" stroke-width="0.5" stroke-linecap="round" x1="62.875" y1="-11.75" x2="62.875" y2="-11.75"/>
			
				<line fill="none" stroke="#1D1D1B" stroke-width="0.5" stroke-linecap="round" x1="65.375" y1="-10.75" x2="65.375" y2="-10.75"/>
			<line fill="none" stroke="#1D1D1B" stroke-width="0.5" stroke-linecap="round" x1="65.375" y1="-6.5" x2="65.375" y2="-6.5"/>
			<line fill="none" stroke="#1D1D1B" stroke-width="0.5" stroke-linecap="round" x1="67.125" y1="-0.5" x2="67.125" y2="-0.5"/>
			<line fill="none" stroke="#1D1D1B" stroke-width="0.5" stroke-linecap="round" x1="74.625" y1="-6.25" x2="74.625" y2="-6.25"/>
			<line fill="none" stroke="#1D1D1B" stroke-width="0.5" stroke-linecap="round" x1="75.625" y1="-2.25" x2="75.625" y2="-2.25"/>
			<line fill="none" stroke="#1D1D1B" stroke-width="0.5" stroke-linecap="round" x1="78.625" y1="-2.75" x2="78.625" y2="-2.75"/>
			<line fill="none" stroke="#1D1D1B" stroke-width="0.5" stroke-linecap="round" x1="78.625" y1="-10" x2="78.625" y2="-10"/>
			<line fill="none" stroke="#1D1D1B" stroke-width="0.5" stroke-linecap="round" x1="74.875" y1="-12" x2="74.875" y2="-12"/>
			<line fill="none" stroke="#1D1D1B" stroke-width="0.5" stroke-linecap="round" x1="75.875" y1="-15.5" x2="75.875" y2="-15.5"/>
			<line fill="none" stroke="#1D1D1B" stroke-width="0.5" stroke-linecap="round" x1="74.625" y1="-19.5" x2="74.625" y2="-19.5"/>
			<line fill="none" stroke="#1D1D1B" stroke-width="0.5" stroke-linecap="round" x1="76.875" y1="-19.5" x2="76.875" y2="-19.5"/>
			<line fill="none" stroke="#1D1D1B" stroke-width="0.5" stroke-linecap="round" x1="78.625" y1="-21" x2="78.625" y2="-21"/>
			<line fill="none" stroke="#1D1D1B" stroke-width="0.5" stroke-linecap="round" x1="79.875" y1="-20" x2="79.875" y2="-20"/>
			
				<line fill="none" stroke="#1D1D1B" stroke-width="0.5" stroke-linecap="round" x1="80.125" y1="-17.75" x2="80.125" y2="-17.75"/>
			
				<line fill="none" stroke="#1D1D1B" stroke-width="0.5" stroke-linecap="round" x1="81.875" y1="-17.25" x2="81.875" y2="-17.25"/>
			
				<line fill="none" stroke="#1D1D1B" stroke-width="0.5" stroke-linecap="round" x1="18.625" y1="-46.75" x2="18.625" y2="-46.75"/>
			<line fill="none" stroke="#1D1D1B" stroke-width="0.5" stroke-linecap="round" x1="17.625" y1="-52" x2="17.625" y2="-52"/>
			
				<line fill="none" stroke="#1D1D1B" stroke-width="0.5" stroke-linecap="round" x1="17.875" y1="-54.25" x2="17.875" y2="-54.25"/>
			<line fill="none" stroke="#1D1D1B" stroke-width="0.5" stroke-linecap="round" x1="15.625" y1="-56.5" x2="15.625" y2="-56.5"/>
			
				<line fill="none" stroke="#1D1D1B" stroke-width="0.5" stroke-linecap="round" x1="12.875" y1="-54.25" x2="12.875" y2="-54.25"/>
			
				<line fill="none" stroke="#1D1D1B" stroke-width="0.5" stroke-linecap="round" x1="20.375" y1="-63.75" x2="20.375" y2="-63.75"/>
			
				<line fill="none" stroke="#1D1D1B" stroke-width="0.5" stroke-linecap="round" x1="12.875" y1="-66.75" x2="12.875" y2="-66.75"/>
			
				<line fill="none" stroke="#1D1D1B" stroke-width="0.5" stroke-linecap="round" x1="11.625" y1="-67.75" x2="11.625" y2="-67.75"/>
			
				<line fill="none" stroke="#1D1D1B" stroke-width="0.5" stroke-linecap="round" x1="21.625" y1="-70.75" x2="21.625" y2="-70.75"/>
			<line fill="none" stroke="#1D1D1B" stroke-width="0.5" stroke-linecap="round" x1="28.375" y1="-69.5" x2="28.375" y2="-69.5"/>
			<line fill="none" stroke="#1D1D1B" stroke-width="0.5" stroke-linecap="round" x1="28.875" y1="-67" x2="28.875" y2="-67"/>
			<line fill="none" stroke="#1D1D1B" stroke-width="0.5" stroke-linecap="round" x1="26.875" y1="-62" x2="26.875" y2="-62"/>
			<line fill="none" stroke="#1D1D1B" stroke-width="0.5" stroke-linecap="round" x1="29.875" y1="-62" x2="29.875" y2="-62"/>
			<line fill="none" stroke="#1D1D1B" stroke-width="0.5" stroke-linecap="round" x1="30.125" y1="-57.5" x2="30.125" y2="-57.5"/>
			<line fill="none" stroke="#1D1D1B" stroke-width="0.5" stroke-linecap="round" x1="29.375" y1="-55.5" x2="29.375" y2="-55.5"/>
			<line fill="none" stroke="#1D1D1B" stroke-width="0.5" stroke-linecap="round" x1="26.875" y1="-54.5" x2="26.875" y2="-54.5"/>
			
				<line fill="none" stroke="#1D1D1B" stroke-width="0.5" stroke-linecap="round" x1="29.875" y1="-50.75" x2="29.875" y2="-50.75"/>
			
				<line fill="none" stroke="#1D1D1B" stroke-width="0.5" stroke-linecap="round" x1="29.625" y1="-46.75" x2="29.625" y2="-46.75"/>
			<line fill="none" stroke="#1D1D1B" stroke-width="0.5" stroke-linecap="round" x1="26.875" y1="-47" x2="26.875" y2="-47"/>
			<line fill="none" stroke="#1D1D1B" stroke-width="0.5" stroke-linecap="round" x1="31.625" y1="-45" x2="31.625" y2="-45"/>
			
				<line fill="none" stroke="#1D1D1B" stroke-width="0.5" stroke-linecap="round" x1="39.125" y1="-50.75" x2="39.125" y2="-50.75"/>
			<line fill="none" stroke="#1D1D1B" stroke-width="0.5" stroke-linecap="round" x1="43.125" y1="-50.5" x2="43.125" y2="-50.5"/>
			<line fill="none" stroke="#1D1D1B" stroke-width="0.5" stroke-linecap="round" x1="37.875" y1="-54" x2="37.875" y2="-54"/>
			<line fill="none" stroke="#1D1D1B" stroke-width="0.5" stroke-linecap="round" x1="42.625" y1="-55.5" x2="42.625" y2="-55.5"/>
			
				<line fill="none" stroke="#1D1D1B" stroke-width="0.5" stroke-linecap="round" x1="42.625" y1="-57.25" x2="42.625" y2="-57.25"/>
			<line fill="none" stroke="#1D1D1B" stroke-width="0.5" stroke-linecap="round" x1="44.625" y1="-58" x2="44.625" y2="-58"/>
			<line fill="none" stroke="#1D1D1B" stroke-width="0.5" stroke-linecap="round" x1="44.625" y1="-60" x2="44.625" y2="-60"/>
			<line fill="none" stroke="#1D1D1B" stroke-width="0.5" stroke-linecap="round" x1="44.875" y1="-66.5" x2="44.875" y2="-66.5"/>
			<line fill="none" stroke="#1D1D1B" stroke-width="0.5" stroke-linecap="round" x1="36.625" y1="-64.5" x2="36.625" y2="-64.5"/>
			
				<line fill="none" stroke="#1D1D1B" stroke-width="0.5" stroke-linecap="round" x1="47.875" y1="-57.25" x2="47.875" y2="-57.25"/>
			
				<line fill="none" stroke="#1D1D1B" stroke-width="0.5" stroke-linecap="round" x1="49.875" y1="-55.75" x2="49.875" y2="-55.75"/>
			
				<line fill="none" stroke="#1D1D1B" stroke-width="0.5" stroke-linecap="round" x1="52.375" y1="-54.75" x2="52.375" y2="-54.75"/>
			<line fill="none" stroke="#1D1D1B" stroke-width="0.5" stroke-linecap="round" x1="52.375" y1="-50.5" x2="52.375" y2="-50.5"/>
			<line fill="none" stroke="#1D1D1B" stroke-width="0.5" stroke-linecap="round" x1="54.125" y1="-44.5" x2="54.125" y2="-44.5"/>
			
				<line fill="none" stroke="#1D1D1B" stroke-width="0.5" stroke-linecap="round" x1="61.625" y1="-50.25" x2="61.625" y2="-50.25"/>
			
				<line fill="none" stroke="#1D1D1B" stroke-width="0.5" stroke-linecap="round" x1="62.625" y1="-46.25" x2="62.625" y2="-46.25"/>
			
				<line fill="none" stroke="#1D1D1B" stroke-width="0.5" stroke-linecap="round" x1="65.625" y1="-46.75" x2="65.625" y2="-46.75"/>
			<line fill="none" stroke="#1D1D1B" stroke-width="0.5" stroke-linecap="round" x1="65.625" y1="-54" x2="65.625" y2="-54"/>
			<line fill="none" stroke="#1D1D1B" stroke-width="0.5" stroke-linecap="round" x1="61.875" y1="-56" x2="61.875" y2="-56"/>
			<line fill="none" stroke="#1D1D1B" stroke-width="0.5" stroke-linecap="round" x1="62.875" y1="-59.5" x2="62.875" y2="-59.5"/>
			<line fill="none" stroke="#1D1D1B" stroke-width="0.5" stroke-linecap="round" x1="61.625" y1="-63.5" x2="61.625" y2="-63.5"/>
			<line fill="none" stroke="#1D1D1B" stroke-width="0.5" stroke-linecap="round" x1="63.875" y1="-63.5" x2="63.875" y2="-63.5"/>
			<line fill="none" stroke="#1D1D1B" stroke-width="0.5" stroke-linecap="round" x1="65.625" y1="-65" x2="65.625" y2="-65"/>
			<line fill="none" stroke="#1D1D1B" stroke-width="0.5" stroke-linecap="round" x1="66.875" y1="-64" x2="66.875" y2="-64"/>
			
				<line fill="none" stroke="#1D1D1B" stroke-width="0.5" stroke-linecap="round" x1="67.125" y1="-61.75" x2="67.125" y2="-61.75"/>
			
				<line fill="none" stroke="#1D1D1B" stroke-width="0.5" stroke-linecap="round" x1="68.875" y1="-61.25" x2="68.875" y2="-61.25"/>
			
				<line fill="none" stroke="#1D1D1B" stroke-width="0.5" stroke-linecap="round" x1="31.625" y1="-26.75" x2="31.625" y2="-26.75"/>
			
				<line fill="none" stroke="#1D1D1B" stroke-width="0.5" stroke-linecap="round" x1="33.375" y1="-23.75" x2="33.375" y2="-23.75"/>
			
				<line fill="none" stroke="#1D1D1B" stroke-width="0.5" stroke-linecap="round" x1="35.875" y1="-24.25" x2="35.875" y2="-24.25"/>
			<line fill="none" stroke="#1D1D1B" stroke-width="0.5" stroke-linecap="round" x1="45.875" y1="-23" x2="45.875" y2="-23"/>
			<line fill="none" stroke="#1D1D1B" stroke-width="0.5" stroke-linecap="round" x1="49.625" y1="-24.5" x2="49.625" y2="-24.5"/>
			
				<line fill="none" stroke="#1D1D1B" stroke-width="0.5" stroke-linecap="round" x1="55.625" y1="-29.25" x2="55.625" y2="-29.25"/>
			
				<line fill="none" stroke="#1D1D1B" stroke-width="0.5" stroke-linecap="round" x1="56.875" y1="-28.75" x2="56.875" y2="-28.75"/>
			
				<line fill="none" stroke="#1D1D1B" stroke-width="0.5" stroke-linecap="round" x1="65.875" y1="-27.75" x2="65.875" y2="-27.75"/>
			<line fill="none" stroke="#1D1D1B" stroke-width="0.5" stroke-linecap="round" x1="61.875" y1="-25" x2="61.875" y2="-25"/>
			
				<line fill="none" stroke="#1D1D1B" stroke-width="0.5" stroke-linecap="round" x1="62.625" y1="-29.25" x2="62.625" y2="-29.25"/>
			
				<line fill="none" stroke="#1D1D1B" stroke-width="0.5" stroke-linecap="round" x1="73.125" y1="-35.25" x2="73.125" y2="-35.25"/>
			<line fill="none" stroke="#1D1D1B" stroke-width="0.5" stroke-linecap="round" x1="68.875" y1="-38" x2="68.875" y2="-38"/>
			
				<line fill="none" stroke="#1D1D1B" stroke-width="0.5" stroke-linecap="round" x1="59.625" y1="-38.75" x2="59.625" y2="-38.75"/>
			<line fill="none" stroke="#1D1D1B" stroke-width="0.5" stroke-linecap="round" x1="58.625" y1="-41" x2="58.625" y2="-41"/>
			
				<line fill="none" stroke="#1D1D1B" stroke-width="0.5" stroke-linecap="round" x1="62.625" y1="-42.75" x2="62.625" y2="-42.75"/>
			
				<line fill="none" stroke="#1D1D1B" stroke-width="0.5" stroke-linecap="round" x1="64.125" y1="-44.75" x2="64.125" y2="-44.75"/>
			
				<line fill="none" stroke="#1D1D1B" stroke-width="0.5" stroke-linecap="round" x1="72.875" y1="-47.75" x2="72.875" y2="-47.75"/>
			<line fill="none" stroke="#1D1D1B" stroke-width="0.5" stroke-linecap="round" x1="75.625" y1="-51.5" x2="75.625" y2="-51.5"/>
			<line fill="none" stroke="#1D1D1B" stroke-width="0.5" stroke-linecap="round" x1="77.625" y1="-51.5" x2="77.625" y2="-51.5"/>
			
				<line fill="none" stroke="#1D1D1B" stroke-width="0.5" stroke-linecap="round" x1="80.125" y1="-44.75" x2="80.125" y2="-44.75"/>
			
				<line fill="none" stroke="#1D1D1B" stroke-width="0.5" stroke-linecap="round" x1="70.625" y1="-38.75" x2="70.625" y2="-38.75"/>
			<line fill="none" stroke="#1D1D1B" stroke-width="0.5" stroke-linecap="round" x1="57.875" y1="-47.5" x2="57.875" y2="-47.5"/>
			
				<line fill="none" stroke="#1D1D1B" stroke-width="0.5" stroke-linecap="round" x1="43.125" y1="-46.75" x2="43.125" y2="-46.75"/>
			
				<line fill="none" stroke="#1D1D1B" stroke-width="0.5" stroke-linecap="round" x1="47.625" y1="-44.25" x2="47.625" y2="-44.25"/>
			<line fill="none" stroke="#1D1D1B" stroke-width="0.5" stroke-linecap="round" x1="36.875" y1="-37.5" x2="36.875" y2="-37.5"/>
			
				<line fill="none" stroke="#1D1D1B" stroke-width="0.5" stroke-linecap="round" x1="40.375" y1="-35.25" x2="40.375" y2="-35.25"/>
			
				<line fill="none" stroke="#1D1D1B" stroke-width="0.5" stroke-linecap="round" x1="27.625" y1="-28.25" x2="27.625" y2="-28.25"/>
			
				<line fill="none" stroke="#1D1D1B" stroke-width="0.5" stroke-linecap="round" x1="21.125" y1="-29.25" x2="21.125" y2="-29.25"/>
			
				<line fill="none" stroke="#1D1D1B" stroke-width="0.5" stroke-linecap="round" x1="16.625" y1="-31.25" x2="16.625" y2="-31.25"/>
			<line fill="none" stroke="#1D1D1B" stroke-width="0.5" stroke-linecap="round" x1="13.125" y1="-35" x2="13.125" y2="-35"/>
			<line fill="none" stroke="#1D1D1B" stroke-width="0.5" stroke-linecap="round" x1="21.875" y1="-36.5" x2="21.875" y2="-36.5"/>
			
				<line fill="none" stroke="#1D1D1B" stroke-width="0.5" stroke-linecap="round" x1="27.625" y1="-41.75" x2="27.625" y2="-41.75"/>
			
				<line fill="none" stroke="#1D1D1B" stroke-width="0.5" stroke-linecap="round" x1="23.375" y1="-35.75" x2="23.375" y2="-35.75"/>
			<line fill="none" stroke="#1D1D1B" stroke-width="0.5" stroke-linecap="round" x1="37.125" y1="-30" x2="37.125" y2="-30"/>
			
				<line fill="none" stroke="#1D1D1B" stroke-width="0.5" stroke-linecap="round" x1="48.375" y1="-30.75" x2="48.375" y2="-30.75"/>
			
				<line fill="none" stroke="#1D1D1B" stroke-width="0.5" stroke-linecap="round" x1="50.125" y1="-32.25" x2="50.125" y2="-32.25"/>
			
				<line fill="none" stroke="#1D1D1B" stroke-width="0.5" stroke-linecap="round" x1="38.625" y1="-41.75" x2="38.625" y2="-41.75"/>
			
				<line fill="none" stroke="#1D1D1B" stroke-width="0.5" stroke-linecap="round" x1="17.125" y1="-20.25" x2="17.125" y2="-20.25"/>
			<line fill="none" stroke="#1D1D1B" stroke-width="0.5" stroke-linecap="round" x1="20.875" y1="-20" x2="20.875" y2="-20"/>
			
				<line fill="none" stroke="#1D1D1B" stroke-width="0.5" stroke-linecap="round" x1="22.375" y1="-23.25" x2="22.375" y2="-23.25"/>
			<line fill="none" stroke="#1D1D1B" stroke-width="0.5" stroke-linecap="round" x1="13.625" y1="-25.5" x2="13.625" y2="-25.5"/>
			
				<line fill="none" stroke="#1D1D1B" stroke-width="0.5" stroke-linecap="round" x1="74.875" y1="-29.25" x2="74.875" y2="-29.25"/>
			<line fill="none" stroke="#1D1D1B" stroke-width="0.5" stroke-linecap="round" x1="78.125" y1="-30.5" x2="78.125" y2="-30.5"/>
			<line fill="none" stroke="#1D1D1B" stroke-width="0.5" stroke-linecap="round" x1="80.125" y1="-29.5" x2="80.125" y2="-29.5"/>
			<line fill="none" stroke="#1D1D1B" stroke-width="0.5" stroke-linecap="round" x1="17.875" y1="-15.5" x2="17.875" y2="-15.5"/>
			<line fill="none" stroke="#1D1D1B" stroke-width="0.5" stroke-linecap="round" x1="12.125" y1="-8.75" x2="12.125" y2="-8.75"/>
			<line fill="none" stroke="#1D1D1B" stroke-width="0.5" stroke-linecap="round" x1="25.125" y1="-6.25" x2="25.125" y2="-6.25"/>
			<line fill="none" stroke="#1D1D1B" stroke-width="0.5" stroke-linecap="round" x1="19.125" y1="-5" x2="19.125" y2="-5"/>
			<line fill="none" stroke="#1D1D1B" stroke-width="0.5" stroke-linecap="round" x1="14.125" y1="-2.25" x2="14.125" y2="-2.25"/>
			<line fill="none" stroke="#1D1D1B" stroke-width="0.5" stroke-linecap="round" x1="14.375" y1="-5.75" x2="14.375" y2="-5.75"/>
			<line fill="none" stroke="#1D1D1B" stroke-width="0.5" stroke-linecap="round" x1="23.375" y1="-14" x2="23.375" y2="-14"/>
			<line fill="none" stroke="#1D1D1B" stroke-width="0.5" stroke-linecap="round" x1="29.125" y1="-19" x2="29.125" y2="-19"/>
			
				<line fill="none" stroke="#1D1D1B" stroke-width="0.5" stroke-linecap="round" x1="31.875" y1="-36.75" x2="31.875" y2="-36.75"/>
			<line fill="none" stroke="#1D1D1B" stroke-width="0.5" stroke-linecap="round" x1="11.375" y1="-44" x2="11.375" y2="-44"/>
			<line fill="none" stroke="#1D1D1B" stroke-width="0.5" stroke-linecap="round" x1="77.125" y1="-37" x2="77.125" y2="-37"/>
			
				<line fill="none" stroke="#1D1D1B" stroke-width="0.5" stroke-linecap="round" x1="78.625" y1="-65.75" x2="78.625" y2="-65.75"/>
			<line fill="none" stroke="#1D1D1B" stroke-width="0.5" stroke-linecap="round" x1="70.375" y1="-69.5" x2="70.375" y2="-69.5"/>
			
				<line fill="none" stroke="#1D1D1B" stroke-width="0.5" stroke-linecap="round" x1="51.125" y1="-67.75" x2="51.125" y2="-67.75"/>
			
				<line fill="none" stroke="#1D1D1B" stroke-width="0.5" stroke-linecap="round" x1="54.625" y1="-62.75" x2="54.625" y2="-62.75"/>
			
				<line fill="none" stroke="#1D1D1B" stroke-width="0.5" stroke-linecap="round" x1="36.375" y1="-69.75" x2="36.375" y2="-69.75"/>
			
				<line fill="none" stroke="#1D1D1B" stroke-width="0.5" stroke-linecap="round" x1="15.125" y1="-59.75" x2="15.125" y2="-59.75"/>
			
				<line fill="none" stroke="#1D1D1B" stroke-width="0.5" stroke-linecap="round" x1="37.125" y1="-59.25" x2="37.125" y2="-59.25"/>
			
				<line fill="none" stroke="#1D1D1B" stroke-width="0.5" stroke-linecap="round" x1="47.875" y1="-48.25" x2="47.875" y2="-48.25"/>
			<line fill="none" stroke="#1D1D1B" stroke-width="0.5" stroke-linecap="round" x1="32.625" y1="-41.5" x2="32.625" y2="-41.5"/>
			<line fill="none" stroke="#1D1D1B" stroke-width="0.5" stroke-linecap="round" x1="19.375" y1="-40" x2="19.375" y2="-40"/>
			
				<line fill="none" stroke="#1D1D1B" stroke-width="0.5" stroke-linecap="round" x1="34.625" y1="-28.75" x2="34.625" y2="-28.75"/>
			
				<line fill="none" stroke="#1D1D1B" stroke-width="0.5" stroke-linecap="round" x1="52.125" y1="-34.25" x2="52.125" y2="-34.25"/>
			
				<line fill="none" stroke="#1D1D1B" stroke-width="0.5" stroke-linecap="round" x1="62.125" y1="-37.25" x2="62.125" y2="-37.25"/>
			
				<line fill="none" stroke="#1D1D1B" stroke-width="0.5" stroke-linecap="round" x1="71.375" y1="-45.75" x2="71.375" y2="-45.75"/>
			<line fill="none" stroke="#1D1D1B" stroke-width="0.5" stroke-linecap="round" x1="78.125" y1="-43.5" x2="78.125" y2="-43.5"/>
			<line fill="none" stroke="#1D1D1B" stroke-width="0.5" stroke-linecap="round" x1="61.875" y1="-66" x2="61.875" y2="-66"/>
			<line fill="none" stroke="#1D1D1B" stroke-width="0.5" stroke-linecap="round" x1="50.625" y1="-37.5" x2="50.625" y2="-37.5"/>
			
				<line fill="none" stroke="#1D1D1B" stroke-width="0.5" stroke-linecap="round" x1="63.875" y1="-14.75" x2="63.875" y2="-14.75"/>
			
				<line fill="none" stroke="#1D1D1B" stroke-width="0.5" stroke-linecap="round" x1="44.625" y1="-15.75" x2="44.625" y2="-15.75"/>
			
				<line fill="none" stroke="#1D1D1B" stroke-width="0.5" stroke-linecap="round" x1="38.125" y1="-13.25" x2="38.125" y2="-13.25"/>
			<line fill="none" stroke="#1D1D1B" stroke-width="0.5" stroke-linecap="round" x1="23.375" y1="-19" x2="23.375" y2="-19"/>
			
				<line fill="none" stroke="#1D1D1B" stroke-width="0.5" stroke-linecap="round" x1="30.375" y1="-26.25" x2="30.375" y2="-26.25"/>
			<line fill="none" stroke="#1D1D1B" stroke-width="0.5" stroke-linecap="round" x1="60.125" y1="-4.25" x2="60.125" y2="-4.25"/>
			<line fill="none" stroke="#1D1D1B" stroke-width="0.5" stroke-linecap="round" x1="22.375" y1="-1.5" x2="22.375" y2="-1.5"/>
			<line fill="none" stroke="#1D1D1B" stroke-width="0.5" stroke-linecap="round" x1="65.875" y1="-3.5" x2="65.875" y2="-3.5"/>
			<line fill="none" stroke="#1D1D1B" stroke-width="0.5" stroke-linecap="round" x1="69.625" y1="-20.5" x2="69.625" y2="-20.5"/>
			<line fill="none" stroke="#1D1D1B" stroke-width="0.5" stroke-linecap="round" x1="78.125" y1="-57" x2="78.125" y2="-57"/>
			<line fill="none" stroke="#1D1D1B" stroke-width="0.5" stroke-linecap="round" x1="57.875" y1="-69.5" x2="57.875" y2="-69.5"/>
			<line fill="none" stroke="#1D1D1B" stroke-width="0.5" stroke-linecap="round" x1="15.875" y1="-69.5" x2="15.875" y2="-69.5"/>
			<line fill="none" stroke="#1D1D1B" stroke-width="0.5" stroke-linecap="round" x1="15.375" y1="-40" x2="15.375" y2="-40"/>
			<line fill="none" stroke="#1D1D1B" stroke-width="0.5" stroke-linecap="round" x1="80.375" y1="-12.5" x2="80.375" y2="-12.5"/>
			
				<line fill="none" stroke="#1D1D1B" stroke-width="0.5" stroke-linecap="round" x1="33.875" y1="-13.75" x2="33.875" y2="-13.75"/>
			<line fill="none" stroke="#1D1D1B" stroke-width="0.5" stroke-linecap="round" x1="31.125" y1="-17" x2="31.125" y2="-17"/>
			<line fill="none" stroke="#1D1D1B" stroke-width="0.5" stroke-linecap="round" x1="25.375" y1="-17" x2="25.375" y2="-17"/>
			<line fill="none" stroke="#1D1D1B" stroke-width="0.5" stroke-linecap="round" x1="13.375" y1="-13" x2="13.375" y2="-13"/>
			<line fill="none" stroke="#1D1D1B" stroke-width="0.5" stroke-linecap="round" x1="16.625" y1="-11.5" x2="16.625" y2="-11.5"/>
			<line fill="none" stroke="#1D1D1B" stroke-width="0.5" stroke-linecap="round" x1="17.625" y1="-2.5" x2="17.625" y2="-2.5"/>
			<line fill="none" stroke="#1D1D1B" stroke-width="0.5" stroke-linecap="round" x1="20.625" y1="-8" x2="20.625" y2="-8"/>
			<line fill="none" stroke="#1D1D1B" stroke-width="0.5" stroke-linecap="round" x1="26.625" y1="-8" x2="26.625" y2="-8"/>
			<line fill="none" stroke="#1D1D1B" stroke-width="0.5" stroke-linecap="round" x1="27.125" y1="-3" x2="27.125" y2="-3"/>
			<line fill="none" stroke="#1D1D1B" stroke-width="0.5" stroke-linecap="round" x1="36.375" y1="-6.75" x2="36.375" y2="-6.75"/>
			<line fill="none" stroke="#1D1D1B" stroke-width="0.5" stroke-linecap="round" x1="47.625" y1="-7.25" x2="47.625" y2="-7.25"/>
			<line fill="none" stroke="#1D1D1B" stroke-width="0.5" stroke-linecap="round" x1="51.125" y1="-4.25" x2="51.125" y2="-4.25"/>
			<line fill="none" stroke="#1D1D1B" stroke-width="0.5" stroke-linecap="round" x1="48.125" y1="-4" x2="48.125" y2="-4"/>
			<line fill="none" stroke="#1D1D1B" stroke-width="0.5" stroke-linecap="round" x1="53.875" y1="-2" x2="53.875" y2="-2"/>
			<line fill="none" stroke="#1D1D1B" stroke-width="0.5" stroke-linecap="round" x1="60.125" y1="-8" x2="60.125" y2="-8"/>
			<line fill="none" stroke="#1D1D1B" stroke-width="0.5" stroke-linecap="round" x1="56.625" y1="-9" x2="56.625" y2="-9"/>
			
				<line fill="none" stroke="#1D1D1B" stroke-width="0.5" stroke-linecap="round" x1="46.375" y1="-10.75" x2="46.375" y2="-10.75"/>
			
				<line fill="none" stroke="#1D1D1B" stroke-width="0.5" stroke-linecap="round" x1="49.875" y1="-14.75" x2="49.875" y2="-14.75"/>
			
				<line fill="none" stroke="#1D1D1B" stroke-width="0.5" stroke-linecap="round" x1="35.375" y1="-17.75" x2="35.375" y2="-17.75"/>
			<line fill="none" stroke="#1D1D1B" stroke-width="0.5" stroke-linecap="round" x1="18.875" y1="-27" x2="18.875" y2="-27"/>
			<line fill="none" stroke="#1D1D1B" stroke-width="0.5" stroke-linecap="round" x1="26.625" y1="-31.5" x2="26.625" y2="-31.5"/>
			
				<line fill="none" stroke="#1D1D1B" stroke-width="0.5" stroke-linecap="round" x1="21.125" y1="-33.25" x2="21.125" y2="-33.25"/>
			
				<line fill="none" stroke="#1D1D1B" stroke-width="0.5" stroke-linecap="round" x1="15.875" y1="-36.75" x2="15.875" y2="-36.75"/>
			
				<line fill="none" stroke="#1D1D1B" stroke-width="0.5" stroke-linecap="round" x1="13.375" y1="-31.75" x2="13.375" y2="-31.75"/>
			
				<line fill="none" stroke="#1D1D1B" stroke-width="0.5" stroke-linecap="round" x1="18.125" y1="-24.75" x2="18.125" y2="-24.75"/>
			
				<line fill="none" stroke="#1D1D1B" stroke-width="0.5" stroke-linecap="round" x1="13.875" y1="-20.25" x2="13.875" y2="-20.25"/>
			<line fill="none" stroke="#1D1D1B" stroke-width="0.5" stroke-linecap="round" x1="31.125" y1="-30.5" x2="31.125" y2="-30.5"/>
			
				<line fill="none" stroke="#1D1D1B" stroke-width="0.5" stroke-linecap="round" x1="28.125" y1="-35.25" x2="28.125" y2="-35.25"/>
			
				<line fill="none" stroke="#1D1D1B" stroke-width="0.5" stroke-linecap="round" x1="26.625" y1="-38.75" x2="26.625" y2="-38.75"/>
			<line fill="none" stroke="#1D1D1B" stroke-width="0.5" stroke-linecap="round" x1="23.375" y1="-41" x2="23.375" y2="-41"/>
			
				<line fill="none" stroke="#1D1D1B" stroke-width="0.5" stroke-linecap="round" x1="23.375" y1="-46.25" x2="23.375" y2="-46.25"/>
			<line fill="none" stroke="#1D1D1B" stroke-width="0.5" stroke-linecap="round" x1="14.625" y1="-46.5" x2="14.625" y2="-46.5"/>
			
				<line fill="none" stroke="#1D1D1B" stroke-width="0.5" stroke-linecap="round" x1="16.375" y1="-48.25" x2="16.375" y2="-48.25"/>
			
				<line fill="none" stroke="#1D1D1B" stroke-width="0.5" stroke-linecap="round" x1="21.625" y1="-50.25" x2="21.625" y2="-50.25"/>
			
				<line fill="none" stroke="#1D1D1B" stroke-width="0.5" stroke-linecap="round" x1="21.625" y1="-54.25" x2="21.625" y2="-54.25"/>
			
				<line fill="none" stroke="#1D1D1B" stroke-width="0.5" stroke-linecap="round" x1="26.125" y1="-58.25" x2="26.125" y2="-58.25"/>
			<line fill="none" stroke="#1D1D1B" stroke-width="0.5" stroke-linecap="round" x1="20.625" y1="-59.5" x2="20.625" y2="-59.5"/>
			
				<line fill="none" stroke="#1D1D1B" stroke-width="0.5" stroke-linecap="round" x1="16.625" y1="-63.25" x2="16.625" y2="-63.25"/>
			
				<line fill="none" stroke="#1D1D1B" stroke-width="0.5" stroke-linecap="round" x1="12.875" y1="-61.75" x2="12.875" y2="-61.75"/>
			<line fill="none" stroke="#1D1D1B" stroke-width="0.5" stroke-linecap="round" x1="17.875" y1="-67.5" x2="17.875" y2="-67.5"/>
			
				<line fill="none" stroke="#1D1D1B" stroke-width="0.5" stroke-linecap="round" x1="24.125" y1="-69.25" x2="24.125" y2="-69.25"/>
			<line fill="none" stroke="#1D1D1B" stroke-width="0.5" stroke-linecap="round" x1="24.125" y1="-65.5" x2="24.125" y2="-65.5"/>
			
				<line fill="none" stroke="#1D1D1B" stroke-width="0.5" stroke-linecap="round" x1="32.125" y1="-68.25" x2="32.125" y2="-68.25"/>
			<line fill="none" stroke="#1D1D1B" stroke-width="0.5" stroke-linecap="round" x1="33.625" y1="-65.5" x2="33.625" y2="-65.5"/>
			
				<line fill="none" stroke="#1D1D1B" stroke-width="0.5" stroke-linecap="round" x1="32.875" y1="-59.75" x2="32.875" y2="-59.75"/>
			
				<line fill="none" stroke="#1D1D1B" stroke-width="0.5" stroke-linecap="round" x1="34.875" y1="-57.25" x2="34.875" y2="-57.25"/>
			<line fill="none" stroke="#1D1D1B" stroke-width="0.5" stroke-linecap="round" x1="32.625" y1="-53" x2="32.625" y2="-53"/>
			<line fill="none" stroke="#1D1D1B" stroke-width="0.5" stroke-linecap="round" x1="36.875" y1="-47.5" x2="36.875" y2="-47.5"/>
			
				<line fill="none" stroke="#1D1D1B" stroke-width="0.5" stroke-linecap="round" x1="36.375" y1="-43.25" x2="36.375" y2="-43.25"/>
			
				<line fill="none" stroke="#1D1D1B" stroke-width="0.5" stroke-linecap="round" x1="41.875" y1="-37.25" x2="41.875" y2="-37.25"/>
			
				<line fill="none" stroke="#1D1D1B" stroke-width="0.5" stroke-linecap="round" x1="42.875" y1="-30.75" x2="42.875" y2="-30.75"/>
			
				<line fill="none" stroke="#1D1D1B" stroke-width="0.5" stroke-linecap="round" x1="36.625" y1="-33.75" x2="36.625" y2="-33.75"/>
			<line fill="none" stroke="#1D1D1B" stroke-width="0.5" stroke-linecap="round" x1="44.875" y1="-27.5" x2="44.875" y2="-27.5"/>
			
				<line fill="none" stroke="#1D1D1B" stroke-width="0.5" stroke-linecap="round" x1="47.875" y1="-28.25" x2="47.875" y2="-28.25"/>
			<line fill="none" stroke="#1D1D1B" stroke-width="0.5" stroke-linecap="round" x1="52.375" y1="-25.5" x2="52.375" y2="-25.5"/>
			<line fill="none" stroke="#1D1D1B" stroke-width="0.5" stroke-linecap="round" x1="53.625" y1="-20.5" x2="53.625" y2="-20.5"/>
			<line fill="none" stroke="#1D1D1B" stroke-width="0.5" stroke-linecap="round" x1="47.125" y1="-19" x2="47.125" y2="-19"/>
			<line fill="none" stroke="#1D1D1B" stroke-width="0.5" stroke-linecap="round" x1="38.375" y1="-22" x2="38.375" y2="-22"/>
			
				<line fill="none" stroke="#1D1D1B" stroke-width="0.5" stroke-linecap="round" x1="62.625" y1="-21.75" x2="62.625" y2="-21.75"/>
			<line fill="none" stroke="#1D1D1B" stroke-width="0.5" stroke-linecap="round" x1="53.875" y1="-17.5" x2="53.875" y2="-17.5"/>
			
				<line fill="none" stroke="#1D1D1B" stroke-width="0.5" stroke-linecap="round" x1="61.125" y1="-17.75" x2="61.125" y2="-17.75"/>
			<line fill="none" stroke="#1D1D1B" stroke-width="0.5" stroke-linecap="round" x1="70.125" y1="-17" x2="70.125" y2="-17"/>
			
				<line fill="none" stroke="#1D1D1B" stroke-width="0.5" stroke-linecap="round" x1="68.875" y1="-13.75" x2="68.875" y2="-13.75"/>
			
				<line fill="none" stroke="#1D1D1B" stroke-width="0.5" stroke-linecap="round" x1="72.125" y1="-10.75" x2="72.125" y2="-10.75"/>
			<line fill="none" stroke="#1D1D1B" stroke-width="0.5" stroke-linecap="round" x1="69.375" y1="-7.25" x2="69.375" y2="-7.25"/>
			<line fill="none" stroke="#1D1D1B" stroke-width="0.5" stroke-linecap="round" x1="70.625" y1="-4.5" x2="70.625" y2="-4.5"/>
			<line fill="none" stroke="#1D1D1B" stroke-width="0.5" stroke-linecap="round" x1="78.125" y1="-5.75" x2="78.125" y2="-5.75"/>
			<line fill="none" stroke="#1D1D1B" stroke-width="0.5" stroke-linecap="round" x1="80.125" y1="-7.75" x2="80.125" y2="-7.75"/>
			<line fill="none" stroke="#1D1D1B" stroke-width="0.5" stroke-linecap="round" x1="76.375" y1="-9.5" x2="76.375" y2="-9.5"/>
			
				<line fill="none" stroke="#1D1D1B" stroke-width="0.5" stroke-linecap="round" x1="72.375" y1="-16.25" x2="72.375" y2="-16.25"/>
			<line fill="none" stroke="#1D1D1B" stroke-width="0.5" stroke-linecap="round" x1="70.875" y1="-23.5" x2="70.875" y2="-23.5"/>
			<line fill="none" stroke="#1D1D1B" stroke-width="0.5" stroke-linecap="round" x1="66.125" y1="-23.5" x2="66.125" y2="-23.5"/>
			<line fill="none" stroke="#1D1D1B" stroke-width="0.5" stroke-linecap="round" x1="66.125" y1="-18.5" x2="66.125" y2="-18.5"/>
			<line fill="none" stroke="#1D1D1B" stroke-width="0.5" stroke-linecap="round" x1="75.625" y1="-25.5" x2="75.625" y2="-25.5"/>
			
				<line fill="none" stroke="#1D1D1B" stroke-width="0.5" stroke-linecap="round" x1="71.875" y1="-26.75" x2="71.875" y2="-26.75"/>
			<line fill="none" stroke="#1D1D1B" stroke-width="0.5" stroke-linecap="round" x1="68.375" y1="-30.5" x2="68.375" y2="-30.5"/>
			<line fill="none" stroke="#1D1D1B" stroke-width="0.5" stroke-linecap="round" x1="63.375" y1="-32.5" x2="63.375" y2="-32.5"/>
			<line fill="none" stroke="#1D1D1B" stroke-width="0.5" stroke-linecap="round" x1="58.125" y1="-33.5" x2="58.125" y2="-33.5"/>
			<line fill="none" stroke="#1D1D1B" stroke-width="0.5" stroke-linecap="round" x1="54.875" y1="-39" x2="54.875" y2="-39"/>
			
				<line fill="none" stroke="#1D1D1B" stroke-width="0.5" stroke-linecap="round" x1="44.625" y1="-41.25" x2="44.625" y2="-41.25"/>
			
				<line fill="none" stroke="#1D1D1B" stroke-width="0.5" stroke-linecap="round" x1="51.375" y1="-47.75" x2="51.375" y2="-47.75"/>
			<line fill="none" stroke="#1D1D1B" stroke-width="0.5" stroke-linecap="round" x1="56.375" y1="-52" x2="56.375" y2="-52"/>
			<line fill="none" stroke="#1D1D1B" stroke-width="0.5" stroke-linecap="round" x1="57.125" y1="-56.5" x2="57.125" y2="-56.5"/>
			
				<line fill="none" stroke="#1D1D1B" stroke-width="0.5" stroke-linecap="round" x1="52.625" y1="-59.25" x2="52.625" y2="-59.25"/>
			<line fill="none" stroke="#1D1D1B" stroke-width="0.5" stroke-linecap="round" x1="50.625" y1="-62.5" x2="50.625" y2="-62.5"/>
			<line fill="none" stroke="#1D1D1B" stroke-width="0.5" stroke-linecap="round" x1="46.625" y1="-62.5" x2="46.625" y2="-62.5"/>
			<line fill="none" stroke="#1D1D1B" stroke-width="0.5" stroke-linecap="round" x1="47.125" y1="-52.5" x2="47.125" y2="-52.5"/>
			
				<line fill="none" stroke="#1D1D1B" stroke-width="0.5" stroke-linecap="round" x1="40.625" y1="-63.25" x2="40.625" y2="-63.25"/>
			
				<line fill="none" stroke="#1D1D1B" stroke-width="0.5" stroke-linecap="round" x1="42.125" y1="-68.25" x2="42.125" y2="-68.25"/>
			
				<line fill="none" stroke="#1D1D1B" stroke-width="0.5" stroke-linecap="round" x1="47.625" y1="-70.75" x2="47.625" y2="-70.75"/>
			
				<line fill="none" stroke="#1D1D1B" stroke-width="0.5" stroke-linecap="round" x1="69.375" y1="-56.75" x2="69.375" y2="-56.75"/>
			
				<line fill="none" stroke="#1D1D1B" stroke-width="0.5" stroke-linecap="round" x1="73.625" y1="-56.75" x2="73.625" y2="-56.75"/>
			<line fill="none" stroke="#1D1D1B" stroke-width="0.5" stroke-linecap="round" x1="70.625" y1="-50.5" x2="70.625" y2="-50.5"/>
			
				<line fill="none" stroke="#1D1D1B" stroke-width="0.5" stroke-linecap="round" x1="65.125" y1="-50.25" x2="65.125" y2="-50.25"/>
			<line fill="none" stroke="#1D1D1B" stroke-width="0.5" stroke-linecap="round" x1="69.875" y1="-44" x2="69.875" y2="-44"/>
			<line fill="none" stroke="#1D1D1B" stroke-width="0.5" stroke-linecap="round" x1="65.375" y1="-41.5" x2="65.375" y2="-41.5"/>
			
				<line fill="none" stroke="#1D1D1B" stroke-width="0.5" stroke-linecap="round" x1="66.375" y1="-35.25" x2="66.375" y2="-35.25"/>
			<line fill="none" stroke="#1D1D1B" stroke-width="0.5" stroke-linecap="round" x1="73.125" y1="-42" x2="73.125" y2="-42"/>
			
				<line fill="none" stroke="#1D1D1B" stroke-width="0.5" stroke-linecap="round" x1="77.625" y1="-47.25" x2="77.625" y2="-47.25"/>
			<line fill="none" stroke="#1D1D1B" stroke-width="0.5" stroke-linecap="round" x1="80.125" y1="-54" x2="80.125" y2="-54"/>
			<line fill="none" stroke="#1D1D1B" stroke-width="0.5" stroke-linecap="round" x1="74.125" y1="-61.5" x2="74.125" y2="-61.5"/>
			
				<line fill="none" stroke="#1D1D1B" stroke-width="0.5" stroke-linecap="round" x1="79.875" y1="-63.25" x2="79.875" y2="-63.25"/>
			
				<line fill="none" stroke="#1D1D1B" stroke-width="0.5" stroke-linecap="round" x1="75.375" y1="-65.25" x2="75.375" y2="-65.25"/>
			<line fill="none" stroke="#1D1D1B" stroke-width="0.5" stroke-linecap="round" x1="76.375" y1="-68" x2="76.375" y2="-68"/>
			
				<line fill="none" stroke="#1D1D1B" stroke-width="0.5" stroke-linecap="round" x1="79.875" y1="-70.25" x2="79.875" y2="-70.25"/>
			<line fill="none" stroke="#1D1D1B" stroke-width="0.5" stroke-linecap="round" x1="73.125" y1="-70" x2="73.125" y2="-70"/>
			<line fill="none" stroke="#1D1D1B" stroke-width="0.5" stroke-linecap="round" x1="71.375" y1="-65.5" x2="71.375" y2="-65.5"/>
			<line fill="none" stroke="#1D1D1B" stroke-width="0.5" stroke-linecap="round" x1="63.375" y1="-69.5" x2="63.375" y2="-69.5"/>
			
				<line fill="none" stroke="#1D1D1B" stroke-width="0.5" stroke-linecap="round" x1="55.375" y1="-66.25" x2="55.375" y2="-66.25"/>
			<line fill="none" stroke="#1D1D1B" stroke-width="0.5" stroke-linecap="round" x1="55.125" y1="-71" x2="55.125" y2="-71"/>
			<line fill="none" stroke="#1D1D1B" stroke-width="0.5" stroke-linecap="round" x1="39.125" y1="-71" x2="39.125" y2="-71"/>
			
				<line fill="none" stroke="#1D1D1B" stroke-width="0.5" stroke-linecap="round" x1="11.375" y1="-29.25" x2="11.375" y2="-29.25"/>
			<line fill="none" stroke="#1D1D1B" stroke-width="0.5" stroke-linecap="round" x1="35.125" y1="-0.75" x2="35.125" y2="-0.75"/>
			<line fill="none" stroke="#1D1D1B" stroke-width="0.5" stroke-linecap="round" x1="23.875" y1="-4.75" x2="23.875" y2="-4.75"/>
			<line fill="none" stroke="#1D1D1B" stroke-width="0.5" stroke-linecap="round" x1="81.625" y1="-35" x2="81.625" y2="-35"/>
			<path fill="none" stroke="#1D1D1B" stroke-width="0.5" stroke-linecap="round" d="M0.625-10.375C0.832-10.375,1-10.208,1-10
				c0,0.207-0.168,0.375-0.375,0.375C0.417-9.625,0.25-9.793,0.25-10C0.25-10.208,0.417-10.375,0.625-10.375z"/>
		</g>
	</g>
</pattern>
<g>
	<circle fill="#FFE5AA" cx="31.047" cy="36.581" r="29.554"/>
	<pattern  id="SVGID_1_" xlink:href="#USGS_17_Lago_seco_arenoso" patternTransform="matrix(1 0 0 -1 -256.7949 -17646)">
	</pattern>
	<circle fill="url(#SVGID_1_)" cx="40.925" cy="25.953" r="14.257"/>
	<circle fill="none" stroke="#FFFFFF" stroke-miterlimit="10" cx="33.781" cy="38.611" r="29.554"/>
	<path fill="none" stroke="#FFFFFF" stroke-miterlimit="10" d="M44.831,17.821c1.283-0.601,2.842-3.292,3.844-4.347
		c2.819-2.967,7.701-6.553,12.089-6.318"/>
	<path fill="#FFFFFF" stroke="#FFFFFF" stroke-width="0.25" stroke-miterlimit="10" d="M50.975,10.706
		c-0.021-2.243-1.387-5.044-2.896-7.021c-1.187-1.552-3.2-3.569-5.226-3.684c-0.054,1.45-0.591,2.877-0.62,4.309
		c-0.03,1.815,1.178,4.133,2.513,5.338c1.255,1.13,4.083,2.483,5.8,1.916"/>
</g>
</svg>
