<?xml version="1.0" encoding="utf-8"?>
<!-- Generator: Adobe Illustrator 16.0.0, SVG Export Plug-In . SVG Version: 6.00 Build 0)  -->
<!DOCTYPE svg PUBLIC "-//W3C//DTD SVG 1.1//EN" "http://www.w3.org/Graphics/SVG/1.1/DTD/svg11.dtd">
<svg version="1.1" id="Layer_1" xmlns="http://www.w3.org/2000/svg" xmlns:xlink="http://www.w3.org/1999/xlink" x="0px" y="0px"
	 width="292.65px" height="70px" viewBox="0 0 292.65 70" enable-background="new 0 0 292.65 70" xml:space="preserve">
<pattern  x="-493.175" y="395.5" width="72" height="72" patternUnits="userSpaceOnUse" id="SVGID_1_" viewBox="10.624 -72 72 72" overflow="visible">
	<g>
		<polygon fill="none" points="10.624,0 82.624,0 82.624,-72 10.624,-72 		"/>
		<g>
			<polygon fill="none" points="10.624,-72 82.624,-72 82.624,0 10.624,0 			"/>
			<g>
				<polygon fill="none" points="10.625,0 10.625,-72 82.625,-72 82.625,0 				"/>
				
					<line fill="none" stroke="#1D1D1B" stroke-width="0.5" stroke-linecap="round" x1="31.625" y1="-69.25" x2="31.625" y2="-69.25"/>
				<line fill="none" stroke="#1D1D1B" stroke-width="0.5" stroke-linecap="round" x1="30.625" y1="-64" x2="30.625" y2="-64"/>
				
					<line fill="none" stroke="#1D1D1B" stroke-width="0.5" stroke-linecap="round" x1="30.875" y1="-61.75" x2="30.875" y2="-61.75"/>
				<line fill="none" stroke="#1D1D1B" stroke-width="0.5" stroke-linecap="round" x1="28.625" y1="-59.5" x2="28.625" y2="-59.5"/>
				
					<line fill="none" stroke="#1D1D1B" stroke-width="0.5" stroke-linecap="round" x1="25.875" y1="-61.75" x2="25.875" y2="-61.75"/>
				
					<line fill="none" stroke="#1D1D1B" stroke-width="0.5" stroke-linecap="round" x1="33.375" y1="-52.25" x2="33.375" y2="-52.25"/>
				
					<line fill="none" stroke="#1D1D1B" stroke-width="0.5" stroke-linecap="round" x1="25.875" y1="-49.25" x2="25.875" y2="-49.25"/>
				
					<line fill="none" stroke="#1D1D1B" stroke-width="0.5" stroke-linecap="round" x1="24.625" y1="-48.25" x2="24.625" y2="-48.25"/>
				
					<line fill="none" stroke="#1D1D1B" stroke-width="0.5" stroke-linecap="round" x1="34.625" y1="-45.25" x2="34.625" y2="-45.25"/>
				<line fill="none" stroke="#1D1D1B" stroke-width="0.5" stroke-linecap="round" x1="41.375" y1="-46.5" x2="41.375" y2="-46.5"/>
				<line fill="none" stroke="#1D1D1B" stroke-width="0.5" stroke-linecap="round" x1="41.875" y1="-49" x2="41.875" y2="-49"/>
				<line fill="none" stroke="#1D1D1B" stroke-width="0.5" stroke-linecap="round" x1="39.875" y1="-54" x2="39.875" y2="-54"/>
				<line fill="none" stroke="#1D1D1B" stroke-width="0.5" stroke-linecap="round" x1="42.875" y1="-54" x2="42.875" y2="-54"/>
				<line fill="none" stroke="#1D1D1B" stroke-width="0.5" stroke-linecap="round" x1="43.125" y1="-58.5" x2="43.125" y2="-58.5"/>
				<line fill="none" stroke="#1D1D1B" stroke-width="0.5" stroke-linecap="round" x1="42.375" y1="-60.5" x2="42.375" y2="-60.5"/>
				<line fill="none" stroke="#1D1D1B" stroke-width="0.5" stroke-linecap="round" x1="39.875" y1="-61.5" x2="39.875" y2="-61.5"/>
				
					<line fill="none" stroke="#1D1D1B" stroke-width="0.5" stroke-linecap="round" x1="42.875" y1="-65.25" x2="42.875" y2="-65.25"/>
				
					<line fill="none" stroke="#1D1D1B" stroke-width="0.5" stroke-linecap="round" x1="42.625" y1="-69.25" x2="42.625" y2="-69.25"/>
				<line fill="none" stroke="#1D1D1B" stroke-width="0.5" stroke-linecap="round" x1="39.875" y1="-69" x2="39.875" y2="-69"/>
				<line fill="none" stroke="#1D1D1B" stroke-width="0.5" stroke-linecap="round" x1="44.625" y1="-71" x2="44.625" y2="-71"/>
				
					<line fill="none" stroke="#1D1D1B" stroke-width="0.5" stroke-linecap="round" x1="52.125" y1="-65.25" x2="52.125" y2="-65.25"/>
				<line fill="none" stroke="#1D1D1B" stroke-width="0.5" stroke-linecap="round" x1="56.125" y1="-65.5" x2="56.125" y2="-65.5"/>
				<line fill="none" stroke="#1D1D1B" stroke-width="0.5" stroke-linecap="round" x1="50.875" y1="-62" x2="50.875" y2="-62"/>
				<line fill="none" stroke="#1D1D1B" stroke-width="0.5" stroke-linecap="round" x1="55.625" y1="-60.5" x2="55.625" y2="-60.5"/>
				
					<line fill="none" stroke="#1D1D1B" stroke-width="0.5" stroke-linecap="round" x1="55.625" y1="-58.75" x2="55.625" y2="-58.75"/>
				<line fill="none" stroke="#1D1D1B" stroke-width="0.5" stroke-linecap="round" x1="57.625" y1="-58" x2="57.625" y2="-58"/>
				<line fill="none" stroke="#1D1D1B" stroke-width="0.5" stroke-linecap="round" x1="57.625" y1="-56" x2="57.625" y2="-56"/>
				<line fill="none" stroke="#1D1D1B" stroke-width="0.5" stroke-linecap="round" x1="57.875" y1="-49.5" x2="57.875" y2="-49.5"/>
				<line fill="none" stroke="#1D1D1B" stroke-width="0.5" stroke-linecap="round" x1="49.625" y1="-51.5" x2="49.625" y2="-51.5"/>
				
					<line fill="none" stroke="#1D1D1B" stroke-width="0.5" stroke-linecap="round" x1="60.875" y1="-58.75" x2="60.875" y2="-58.75"/>
				
					<line fill="none" stroke="#1D1D1B" stroke-width="0.5" stroke-linecap="round" x1="62.875" y1="-60.25" x2="62.875" y2="-60.25"/>
				
					<line fill="none" stroke="#1D1D1B" stroke-width="0.5" stroke-linecap="round" x1="65.375" y1="-61.25" x2="65.375" y2="-61.25"/>
				<line fill="none" stroke="#1D1D1B" stroke-width="0.5" stroke-linecap="round" x1="65.375" y1="-65.5" x2="65.375" y2="-65.5"/>
				<line fill="none" stroke="#1D1D1B" stroke-width="0.5" stroke-linecap="round" x1="67.125" y1="-71.5" x2="67.125" y2="-71.5"/>
				
					<line fill="none" stroke="#1D1D1B" stroke-width="0.5" stroke-linecap="round" x1="74.625" y1="-65.75" x2="74.625" y2="-65.75"/>
				
					<line fill="none" stroke="#1D1D1B" stroke-width="0.5" stroke-linecap="round" x1="75.625" y1="-69.75" x2="75.625" y2="-69.75"/>
				
					<line fill="none" stroke="#1D1D1B" stroke-width="0.5" stroke-linecap="round" x1="78.625" y1="-69.25" x2="78.625" y2="-69.25"/>
				<line fill="none" stroke="#1D1D1B" stroke-width="0.5" stroke-linecap="round" x1="78.625" y1="-62" x2="78.625" y2="-62"/>
				<line fill="none" stroke="#1D1D1B" stroke-width="0.5" stroke-linecap="round" x1="74.875" y1="-60" x2="74.875" y2="-60"/>
				<line fill="none" stroke="#1D1D1B" stroke-width="0.5" stroke-linecap="round" x1="75.875" y1="-56.5" x2="75.875" y2="-56.5"/>
				<line fill="none" stroke="#1D1D1B" stroke-width="0.5" stroke-linecap="round" x1="74.625" y1="-52.5" x2="74.625" y2="-52.5"/>
				<line fill="none" stroke="#1D1D1B" stroke-width="0.5" stroke-linecap="round" x1="76.875" y1="-52.5" x2="76.875" y2="-52.5"/>
				<line fill="none" stroke="#1D1D1B" stroke-width="0.5" stroke-linecap="round" x1="78.625" y1="-51" x2="78.625" y2="-51"/>
				<line fill="none" stroke="#1D1D1B" stroke-width="0.5" stroke-linecap="round" x1="79.875" y1="-52" x2="79.875" y2="-52"/>
				
					<line fill="none" stroke="#1D1D1B" stroke-width="0.5" stroke-linecap="round" x1="80.125" y1="-54.25" x2="80.125" y2="-54.25"/>
				
					<line fill="none" stroke="#1D1D1B" stroke-width="0.5" stroke-linecap="round" x1="81.875" y1="-54.75" x2="81.875" y2="-54.75"/>
				
					<line fill="none" stroke="#1D1D1B" stroke-width="0.5" stroke-linecap="round" x1="18.625" y1="-25.25" x2="18.625" y2="-25.25"/>
				<line fill="none" stroke="#1D1D1B" stroke-width="0.5" stroke-linecap="round" x1="17.625" y1="-20" x2="17.625" y2="-20"/>
				
					<line fill="none" stroke="#1D1D1B" stroke-width="0.5" stroke-linecap="round" x1="17.875" y1="-17.75" x2="17.875" y2="-17.75"/>
				<line fill="none" stroke="#1D1D1B" stroke-width="0.5" stroke-linecap="round" x1="15.625" y1="-15.5" x2="15.625" y2="-15.5"/>
				
					<line fill="none" stroke="#1D1D1B" stroke-width="0.5" stroke-linecap="round" x1="12.875" y1="-17.75" x2="12.875" y2="-17.75"/>
				<line fill="none" stroke="#1D1D1B" stroke-width="0.5" stroke-linecap="round" x1="20.375" y1="-8.25" x2="20.375" y2="-8.25"/>
				<line fill="none" stroke="#1D1D1B" stroke-width="0.5" stroke-linecap="round" x1="12.875" y1="-5.25" x2="12.875" y2="-5.25"/>
				<line fill="none" stroke="#1D1D1B" stroke-width="0.5" stroke-linecap="round" x1="11.625" y1="-4.25" x2="11.625" y2="-4.25"/>
				<line fill="none" stroke="#1D1D1B" stroke-width="0.5" stroke-linecap="round" x1="21.625" y1="-1.25" x2="21.625" y2="-1.25"/>
				<line fill="none" stroke="#1D1D1B" stroke-width="0.5" stroke-linecap="round" x1="28.375" y1="-2.5" x2="28.375" y2="-2.5"/>
				<line fill="none" stroke="#1D1D1B" stroke-width="0.5" stroke-linecap="round" x1="28.875" y1="-5" x2="28.875" y2="-5"/>
				<line fill="none" stroke="#1D1D1B" stroke-width="0.5" stroke-linecap="round" x1="26.875" y1="-10" x2="26.875" y2="-10"/>
				<line fill="none" stroke="#1D1D1B" stroke-width="0.5" stroke-linecap="round" x1="29.875" y1="-10" x2="29.875" y2="-10"/>
				<line fill="none" stroke="#1D1D1B" stroke-width="0.5" stroke-linecap="round" x1="30.125" y1="-14.5" x2="30.125" y2="-14.5"/>
				<line fill="none" stroke="#1D1D1B" stroke-width="0.5" stroke-linecap="round" x1="29.375" y1="-16.5" x2="29.375" y2="-16.5"/>
				<line fill="none" stroke="#1D1D1B" stroke-width="0.5" stroke-linecap="round" x1="26.875" y1="-17.5" x2="26.875" y2="-17.5"/>
				
					<line fill="none" stroke="#1D1D1B" stroke-width="0.5" stroke-linecap="round" x1="29.875" y1="-21.25" x2="29.875" y2="-21.25"/>
				
					<line fill="none" stroke="#1D1D1B" stroke-width="0.5" stroke-linecap="round" x1="29.625" y1="-25.25" x2="29.625" y2="-25.25"/>
				<line fill="none" stroke="#1D1D1B" stroke-width="0.5" stroke-linecap="round" x1="26.875" y1="-25" x2="26.875" y2="-25"/>
				<line fill="none" stroke="#1D1D1B" stroke-width="0.5" stroke-linecap="round" x1="31.625" y1="-27" x2="31.625" y2="-27"/>
				
					<line fill="none" stroke="#1D1D1B" stroke-width="0.5" stroke-linecap="round" x1="39.125" y1="-21.25" x2="39.125" y2="-21.25"/>
				<line fill="none" stroke="#1D1D1B" stroke-width="0.5" stroke-linecap="round" x1="43.125" y1="-21.5" x2="43.125" y2="-21.5"/>
				<line fill="none" stroke="#1D1D1B" stroke-width="0.5" stroke-linecap="round" x1="37.875" y1="-18" x2="37.875" y2="-18"/>
				<line fill="none" stroke="#1D1D1B" stroke-width="0.5" stroke-linecap="round" x1="42.625" y1="-16.5" x2="42.625" y2="-16.5"/>
				
					<line fill="none" stroke="#1D1D1B" stroke-width="0.5" stroke-linecap="round" x1="42.625" y1="-14.75" x2="42.625" y2="-14.75"/>
				<line fill="none" stroke="#1D1D1B" stroke-width="0.5" stroke-linecap="round" x1="44.625" y1="-14" x2="44.625" y2="-14"/>
				<line fill="none" stroke="#1D1D1B" stroke-width="0.5" stroke-linecap="round" x1="44.625" y1="-12" x2="44.625" y2="-12"/>
				<line fill="none" stroke="#1D1D1B" stroke-width="0.5" stroke-linecap="round" x1="44.875" y1="-5.5" x2="44.875" y2="-5.5"/>
				<line fill="none" stroke="#1D1D1B" stroke-width="0.5" stroke-linecap="round" x1="36.625" y1="-7.5" x2="36.625" y2="-7.5"/>
				
					<line fill="none" stroke="#1D1D1B" stroke-width="0.5" stroke-linecap="round" x1="47.875" y1="-14.75" x2="47.875" y2="-14.75"/>
				
					<line fill="none" stroke="#1D1D1B" stroke-width="0.5" stroke-linecap="round" x1="49.875" y1="-16.25" x2="49.875" y2="-16.25"/>
				
					<line fill="none" stroke="#1D1D1B" stroke-width="0.5" stroke-linecap="round" x1="52.375" y1="-17.25" x2="52.375" y2="-17.25"/>
				<line fill="none" stroke="#1D1D1B" stroke-width="0.5" stroke-linecap="round" x1="52.375" y1="-21.5" x2="52.375" y2="-21.5"/>
				<line fill="none" stroke="#1D1D1B" stroke-width="0.5" stroke-linecap="round" x1="54.125" y1="-27.5" x2="54.125" y2="-27.5"/>
				
					<line fill="none" stroke="#1D1D1B" stroke-width="0.5" stroke-linecap="round" x1="61.625" y1="-21.75" x2="61.625" y2="-21.75"/>
				
					<line fill="none" stroke="#1D1D1B" stroke-width="0.5" stroke-linecap="round" x1="62.625" y1="-25.75" x2="62.625" y2="-25.75"/>
				
					<line fill="none" stroke="#1D1D1B" stroke-width="0.5" stroke-linecap="round" x1="65.625" y1="-25.25" x2="65.625" y2="-25.25"/>
				<line fill="none" stroke="#1D1D1B" stroke-width="0.5" stroke-linecap="round" x1="65.625" y1="-18" x2="65.625" y2="-18"/>
				<line fill="none" stroke="#1D1D1B" stroke-width="0.5" stroke-linecap="round" x1="61.875" y1="-16" x2="61.875" y2="-16"/>
				<line fill="none" stroke="#1D1D1B" stroke-width="0.5" stroke-linecap="round" x1="62.875" y1="-12.5" x2="62.875" y2="-12.5"/>
				<line fill="none" stroke="#1D1D1B" stroke-width="0.5" stroke-linecap="round" x1="61.625" y1="-8.5" x2="61.625" y2="-8.5"/>
				<line fill="none" stroke="#1D1D1B" stroke-width="0.5" stroke-linecap="round" x1="63.875" y1="-8.5" x2="63.875" y2="-8.5"/>
				<line fill="none" stroke="#1D1D1B" stroke-width="0.5" stroke-linecap="round" x1="65.625" y1="-7" x2="65.625" y2="-7"/>
				<line fill="none" stroke="#1D1D1B" stroke-width="0.5" stroke-linecap="round" x1="66.875" y1="-8" x2="66.875" y2="-8"/>
				
					<line fill="none" stroke="#1D1D1B" stroke-width="0.5" stroke-linecap="round" x1="67.125" y1="-10.25" x2="67.125" y2="-10.25"/>
				
					<line fill="none" stroke="#1D1D1B" stroke-width="0.5" stroke-linecap="round" x1="68.875" y1="-10.75" x2="68.875" y2="-10.75"/>
				
					<line fill="none" stroke="#1D1D1B" stroke-width="0.5" stroke-linecap="round" x1="31.625" y1="-45.25" x2="31.625" y2="-45.25"/>
				
					<line fill="none" stroke="#1D1D1B" stroke-width="0.5" stroke-linecap="round" x1="33.375" y1="-48.25" x2="33.375" y2="-48.25"/>
				
					<line fill="none" stroke="#1D1D1B" stroke-width="0.5" stroke-linecap="round" x1="35.875" y1="-47.75" x2="35.875" y2="-47.75"/>
				<line fill="none" stroke="#1D1D1B" stroke-width="0.5" stroke-linecap="round" x1="45.875" y1="-49" x2="45.875" y2="-49"/>
				<line fill="none" stroke="#1D1D1B" stroke-width="0.5" stroke-linecap="round" x1="49.625" y1="-47.5" x2="49.625" y2="-47.5"/>
				
					<line fill="none" stroke="#1D1D1B" stroke-width="0.5" stroke-linecap="round" x1="55.625" y1="-42.75" x2="55.625" y2="-42.75"/>
				
					<line fill="none" stroke="#1D1D1B" stroke-width="0.5" stroke-linecap="round" x1="56.875" y1="-43.25" x2="56.875" y2="-43.25"/>
				
					<line fill="none" stroke="#1D1D1B" stroke-width="0.5" stroke-linecap="round" x1="65.875" y1="-44.25" x2="65.875" y2="-44.25"/>
				<line fill="none" stroke="#1D1D1B" stroke-width="0.5" stroke-linecap="round" x1="61.875" y1="-47" x2="61.875" y2="-47"/>
				
					<line fill="none" stroke="#1D1D1B" stroke-width="0.5" stroke-linecap="round" x1="62.625" y1="-42.75" x2="62.625" y2="-42.75"/>
				
					<line fill="none" stroke="#1D1D1B" stroke-width="0.5" stroke-linecap="round" x1="73.125" y1="-36.75" x2="73.125" y2="-36.75"/>
				<line fill="none" stroke="#1D1D1B" stroke-width="0.5" stroke-linecap="round" x1="68.875" y1="-34" x2="68.875" y2="-34"/>
				
					<line fill="none" stroke="#1D1D1B" stroke-width="0.5" stroke-linecap="round" x1="59.625" y1="-33.25" x2="59.625" y2="-33.25"/>
				<line fill="none" stroke="#1D1D1B" stroke-width="0.5" stroke-linecap="round" x1="58.625" y1="-31" x2="58.625" y2="-31"/>
				
					<line fill="none" stroke="#1D1D1B" stroke-width="0.5" stroke-linecap="round" x1="62.625" y1="-29.25" x2="62.625" y2="-29.25"/>
				
					<line fill="none" stroke="#1D1D1B" stroke-width="0.5" stroke-linecap="round" x1="64.125" y1="-27.25" x2="64.125" y2="-27.25"/>
				
					<line fill="none" stroke="#1D1D1B" stroke-width="0.5" stroke-linecap="round" x1="72.875" y1="-24.25" x2="72.875" y2="-24.25"/>
				<line fill="none" stroke="#1D1D1B" stroke-width="0.5" stroke-linecap="round" x1="75.625" y1="-20.5" x2="75.625" y2="-20.5"/>
				<line fill="none" stroke="#1D1D1B" stroke-width="0.5" stroke-linecap="round" x1="77.625" y1="-20.5" x2="77.625" y2="-20.5"/>
				
					<line fill="none" stroke="#1D1D1B" stroke-width="0.5" stroke-linecap="round" x1="80.125" y1="-27.25" x2="80.125" y2="-27.25"/>
				
					<line fill="none" stroke="#1D1D1B" stroke-width="0.5" stroke-linecap="round" x1="70.625" y1="-33.25" x2="70.625" y2="-33.25"/>
				<line fill="none" stroke="#1D1D1B" stroke-width="0.5" stroke-linecap="round" x1="57.875" y1="-24.5" x2="57.875" y2="-24.5"/>
				
					<line fill="none" stroke="#1D1D1B" stroke-width="0.5" stroke-linecap="round" x1="43.125" y1="-25.25" x2="43.125" y2="-25.25"/>
				
					<line fill="none" stroke="#1D1D1B" stroke-width="0.5" stroke-linecap="round" x1="47.625" y1="-27.75" x2="47.625" y2="-27.75"/>
				<line fill="none" stroke="#1D1D1B" stroke-width="0.5" stroke-linecap="round" x1="36.875" y1="-34.5" x2="36.875" y2="-34.5"/>
				
					<line fill="none" stroke="#1D1D1B" stroke-width="0.5" stroke-linecap="round" x1="40.375" y1="-36.75" x2="40.375" y2="-36.75"/>
				
					<line fill="none" stroke="#1D1D1B" stroke-width="0.5" stroke-linecap="round" x1="27.625" y1="-43.75" x2="27.625" y2="-43.75"/>
				
					<line fill="none" stroke="#1D1D1B" stroke-width="0.5" stroke-linecap="round" x1="21.125" y1="-42.75" x2="21.125" y2="-42.75"/>
				
					<line fill="none" stroke="#1D1D1B" stroke-width="0.5" stroke-linecap="round" x1="16.625" y1="-40.75" x2="16.625" y2="-40.75"/>
				<line fill="none" stroke="#1D1D1B" stroke-width="0.5" stroke-linecap="round" x1="13.125" y1="-37" x2="13.125" y2="-37"/>
				<line fill="none" stroke="#1D1D1B" stroke-width="0.5" stroke-linecap="round" x1="21.875" y1="-35.5" x2="21.875" y2="-35.5"/>
				
					<line fill="none" stroke="#1D1D1B" stroke-width="0.5" stroke-linecap="round" x1="27.625" y1="-30.25" x2="27.625" y2="-30.25"/>
				
					<line fill="none" stroke="#1D1D1B" stroke-width="0.5" stroke-linecap="round" x1="23.375" y1="-36.25" x2="23.375" y2="-36.25"/>
				<line fill="none" stroke="#1D1D1B" stroke-width="0.5" stroke-linecap="round" x1="37.125" y1="-42" x2="37.125" y2="-42"/>
				
					<line fill="none" stroke="#1D1D1B" stroke-width="0.5" stroke-linecap="round" x1="48.375" y1="-41.25" x2="48.375" y2="-41.25"/>
				
					<line fill="none" stroke="#1D1D1B" stroke-width="0.5" stroke-linecap="round" x1="50.125" y1="-39.75" x2="50.125" y2="-39.75"/>
				
					<line fill="none" stroke="#1D1D1B" stroke-width="0.5" stroke-linecap="round" x1="38.625" y1="-30.25" x2="38.625" y2="-30.25"/>
				
					<line fill="none" stroke="#1D1D1B" stroke-width="0.5" stroke-linecap="round" x1="17.125" y1="-51.75" x2="17.125" y2="-51.75"/>
				<line fill="none" stroke="#1D1D1B" stroke-width="0.5" stroke-linecap="round" x1="20.875" y1="-52" x2="20.875" y2="-52"/>
				
					<line fill="none" stroke="#1D1D1B" stroke-width="0.5" stroke-linecap="round" x1="22.375" y1="-48.75" x2="22.375" y2="-48.75"/>
				<line fill="none" stroke="#1D1D1B" stroke-width="0.5" stroke-linecap="round" x1="13.625" y1="-46.5" x2="13.625" y2="-46.5"/>
				
					<line fill="none" stroke="#1D1D1B" stroke-width="0.5" stroke-linecap="round" x1="74.875" y1="-42.75" x2="74.875" y2="-42.75"/>
				<line fill="none" stroke="#1D1D1B" stroke-width="0.5" stroke-linecap="round" x1="78.125" y1="-41.5" x2="78.125" y2="-41.5"/>
				<line fill="none" stroke="#1D1D1B" stroke-width="0.5" stroke-linecap="round" x1="80.125" y1="-42.5" x2="80.125" y2="-42.5"/>
				<line fill="none" stroke="#1D1D1B" stroke-width="0.5" stroke-linecap="round" x1="17.875" y1="-56.5" x2="17.875" y2="-56.5"/>
				
					<line fill="none" stroke="#1D1D1B" stroke-width="0.5" stroke-linecap="round" x1="12.125" y1="-63.25" x2="12.125" y2="-63.25"/>
				
					<line fill="none" stroke="#1D1D1B" stroke-width="0.5" stroke-linecap="round" x1="25.125" y1="-65.75" x2="25.125" y2="-65.75"/>
				<line fill="none" stroke="#1D1D1B" stroke-width="0.5" stroke-linecap="round" x1="19.125" y1="-67" x2="19.125" y2="-67"/>
				
					<line fill="none" stroke="#1D1D1B" stroke-width="0.5" stroke-linecap="round" x1="14.125" y1="-69.75" x2="14.125" y2="-69.75"/>
				
					<line fill="none" stroke="#1D1D1B" stroke-width="0.5" stroke-linecap="round" x1="14.375" y1="-66.25" x2="14.375" y2="-66.25"/>
				<line fill="none" stroke="#1D1D1B" stroke-width="0.5" stroke-linecap="round" x1="23.375" y1="-58" x2="23.375" y2="-58"/>
				<line fill="none" stroke="#1D1D1B" stroke-width="0.5" stroke-linecap="round" x1="29.125" y1="-53" x2="29.125" y2="-53"/>
				
					<line fill="none" stroke="#1D1D1B" stroke-width="0.5" stroke-linecap="round" x1="31.875" y1="-35.25" x2="31.875" y2="-35.25"/>
				<line fill="none" stroke="#1D1D1B" stroke-width="0.5" stroke-linecap="round" x1="11.375" y1="-28" x2="11.375" y2="-28"/>
				<line fill="none" stroke="#1D1D1B" stroke-width="0.5" stroke-linecap="round" x1="77.125" y1="-35" x2="77.125" y2="-35"/>
				<line fill="none" stroke="#1D1D1B" stroke-width="0.5" stroke-linecap="round" x1="78.625" y1="-6.25" x2="78.625" y2="-6.25"/>
				<line fill="none" stroke="#1D1D1B" stroke-width="0.5" stroke-linecap="round" x1="70.375" y1="-2.5" x2="70.375" y2="-2.5"/>
				<line fill="none" stroke="#1D1D1B" stroke-width="0.5" stroke-linecap="round" x1="51.125" y1="-4.25" x2="51.125" y2="-4.25"/>
				<line fill="none" stroke="#1D1D1B" stroke-width="0.5" stroke-linecap="round" x1="54.625" y1="-9.25" x2="54.625" y2="-9.25"/>
				<line fill="none" stroke="#1D1D1B" stroke-width="0.5" stroke-linecap="round" x1="36.375" y1="-2.25" x2="36.375" y2="-2.25"/>
				
					<line fill="none" stroke="#1D1D1B" stroke-width="0.5" stroke-linecap="round" x1="15.125" y1="-12.25" x2="15.125" y2="-12.25"/>
				
					<line fill="none" stroke="#1D1D1B" stroke-width="0.5" stroke-linecap="round" x1="37.125" y1="-12.75" x2="37.125" y2="-12.75"/>
				
					<line fill="none" stroke="#1D1D1B" stroke-width="0.5" stroke-linecap="round" x1="47.875" y1="-23.75" x2="47.875" y2="-23.75"/>
				<line fill="none" stroke="#1D1D1B" stroke-width="0.5" stroke-linecap="round" x1="32.625" y1="-30.5" x2="32.625" y2="-30.5"/>
				<line fill="none" stroke="#1D1D1B" stroke-width="0.5" stroke-linecap="round" x1="19.375" y1="-32" x2="19.375" y2="-32"/>
				
					<line fill="none" stroke="#1D1D1B" stroke-width="0.5" stroke-linecap="round" x1="34.625" y1="-43.25" x2="34.625" y2="-43.25"/>
				
					<line fill="none" stroke="#1D1D1B" stroke-width="0.5" stroke-linecap="round" x1="52.125" y1="-37.75" x2="52.125" y2="-37.75"/>
				
					<line fill="none" stroke="#1D1D1B" stroke-width="0.5" stroke-linecap="round" x1="62.125" y1="-34.75" x2="62.125" y2="-34.75"/>
				
					<line fill="none" stroke="#1D1D1B" stroke-width="0.5" stroke-linecap="round" x1="71.375" y1="-26.25" x2="71.375" y2="-26.25"/>
				<line fill="none" stroke="#1D1D1B" stroke-width="0.5" stroke-linecap="round" x1="78.125" y1="-28.5" x2="78.125" y2="-28.5"/>
				<line fill="none" stroke="#1D1D1B" stroke-width="0.5" stroke-linecap="round" x1="61.875" y1="-6" x2="61.875" y2="-6"/>
				<line fill="none" stroke="#1D1D1B" stroke-width="0.5" stroke-linecap="round" x1="50.625" y1="-34.5" x2="50.625" y2="-34.5"/>
				
					<line fill="none" stroke="#1D1D1B" stroke-width="0.5" stroke-linecap="round" x1="63.875" y1="-57.25" x2="63.875" y2="-57.25"/>
				
					<line fill="none" stroke="#1D1D1B" stroke-width="0.5" stroke-linecap="round" x1="44.625" y1="-56.25" x2="44.625" y2="-56.25"/>
				
					<line fill="none" stroke="#1D1D1B" stroke-width="0.5" stroke-linecap="round" x1="38.125" y1="-58.75" x2="38.125" y2="-58.75"/>
				<line fill="none" stroke="#1D1D1B" stroke-width="0.5" stroke-linecap="round" x1="23.375" y1="-53" x2="23.375" y2="-53"/>
				
					<line fill="none" stroke="#1D1D1B" stroke-width="0.5" stroke-linecap="round" x1="30.375" y1="-45.75" x2="30.375" y2="-45.75"/>
				
					<line fill="none" stroke="#1D1D1B" stroke-width="0.5" stroke-linecap="round" x1="60.125" y1="-67.75" x2="60.125" y2="-67.75"/>
				<line fill="none" stroke="#1D1D1B" stroke-width="0.5" stroke-linecap="round" x1="22.375" y1="-70.5" x2="22.375" y2="-70.5"/>
				<line fill="none" stroke="#1D1D1B" stroke-width="0.5" stroke-linecap="round" x1="65.875" y1="-68.5" x2="65.875" y2="-68.5"/>
				<line fill="none" stroke="#1D1D1B" stroke-width="0.5" stroke-linecap="round" x1="69.625" y1="-51.5" x2="69.625" y2="-51.5"/>
				<line fill="none" stroke="#1D1D1B" stroke-width="0.5" stroke-linecap="round" x1="78.125" y1="-15" x2="78.125" y2="-15"/>
				<line fill="none" stroke="#1D1D1B" stroke-width="0.5" stroke-linecap="round" x1="57.875" y1="-2.5" x2="57.875" y2="-2.5"/>
				<line fill="none" stroke="#1D1D1B" stroke-width="0.5" stroke-linecap="round" x1="15.875" y1="-2.5" x2="15.875" y2="-2.5"/>
				<line fill="none" stroke="#1D1D1B" stroke-width="0.5" stroke-linecap="round" x1="15.375" y1="-32" x2="15.375" y2="-32"/>
				<line fill="none" stroke="#1D1D1B" stroke-width="0.5" stroke-linecap="round" x1="80.375" y1="-59.5" x2="80.375" y2="-59.5"/>
				
					<line fill="none" stroke="#1D1D1B" stroke-width="0.5" stroke-linecap="round" x1="33.875" y1="-58.25" x2="33.875" y2="-58.25"/>
				<line fill="none" stroke="#1D1D1B" stroke-width="0.5" stroke-linecap="round" x1="31.125" y1="-55" x2="31.125" y2="-55"/>
				<line fill="none" stroke="#1D1D1B" stroke-width="0.5" stroke-linecap="round" x1="25.375" y1="-55" x2="25.375" y2="-55"/>
				<line fill="none" stroke="#1D1D1B" stroke-width="0.5" stroke-linecap="round" x1="13.375" y1="-59" x2="13.375" y2="-59"/>
				<line fill="none" stroke="#1D1D1B" stroke-width="0.5" stroke-linecap="round" x1="16.625" y1="-60.5" x2="16.625" y2="-60.5"/>
				<line fill="none" stroke="#1D1D1B" stroke-width="0.5" stroke-linecap="round" x1="17.625" y1="-69.5" x2="17.625" y2="-69.5"/>
				<line fill="none" stroke="#1D1D1B" stroke-width="0.5" stroke-linecap="round" x1="20.625" y1="-64" x2="20.625" y2="-64"/>
				<line fill="none" stroke="#1D1D1B" stroke-width="0.5" stroke-linecap="round" x1="26.625" y1="-64" x2="26.625" y2="-64"/>
				<line fill="none" stroke="#1D1D1B" stroke-width="0.5" stroke-linecap="round" x1="27.125" y1="-69" x2="27.125" y2="-69"/>
				
					<line fill="none" stroke="#1D1D1B" stroke-width="0.5" stroke-linecap="round" x1="36.375" y1="-65.25" x2="36.375" y2="-65.25"/>
				
					<line fill="none" stroke="#1D1D1B" stroke-width="0.5" stroke-linecap="round" x1="47.625" y1="-64.75" x2="47.625" y2="-64.75"/>
				
					<line fill="none" stroke="#1D1D1B" stroke-width="0.5" stroke-linecap="round" x1="51.125" y1="-67.75" x2="51.125" y2="-67.75"/>
				<line fill="none" stroke="#1D1D1B" stroke-width="0.5" stroke-linecap="round" x1="48.125" y1="-68" x2="48.125" y2="-68"/>
				<line fill="none" stroke="#1D1D1B" stroke-width="0.5" stroke-linecap="round" x1="53.875" y1="-70" x2="53.875" y2="-70"/>
				<line fill="none" stroke="#1D1D1B" stroke-width="0.5" stroke-linecap="round" x1="60.125" y1="-64" x2="60.125" y2="-64"/>
				<line fill="none" stroke="#1D1D1B" stroke-width="0.5" stroke-linecap="round" x1="56.625" y1="-63" x2="56.625" y2="-63"/>
				
					<line fill="none" stroke="#1D1D1B" stroke-width="0.5" stroke-linecap="round" x1="46.375" y1="-61.25" x2="46.375" y2="-61.25"/>
				
					<line fill="none" stroke="#1D1D1B" stroke-width="0.5" stroke-linecap="round" x1="49.875" y1="-57.25" x2="49.875" y2="-57.25"/>
				
					<line fill="none" stroke="#1D1D1B" stroke-width="0.5" stroke-linecap="round" x1="35.375" y1="-54.25" x2="35.375" y2="-54.25"/>
				<line fill="none" stroke="#1D1D1B" stroke-width="0.5" stroke-linecap="round" x1="18.875" y1="-45" x2="18.875" y2="-45"/>
				<line fill="none" stroke="#1D1D1B" stroke-width="0.5" stroke-linecap="round" x1="26.625" y1="-40.5" x2="26.625" y2="-40.5"/>
				
					<line fill="none" stroke="#1D1D1B" stroke-width="0.5" stroke-linecap="round" x1="21.125" y1="-38.75" x2="21.125" y2="-38.75"/>
				
					<line fill="none" stroke="#1D1D1B" stroke-width="0.5" stroke-linecap="round" x1="15.875" y1="-35.25" x2="15.875" y2="-35.25"/>
				
					<line fill="none" stroke="#1D1D1B" stroke-width="0.5" stroke-linecap="round" x1="13.375" y1="-40.25" x2="13.375" y2="-40.25"/>
				
					<line fill="none" stroke="#1D1D1B" stroke-width="0.5" stroke-linecap="round" x1="18.125" y1="-47.25" x2="18.125" y2="-47.25"/>
				
					<line fill="none" stroke="#1D1D1B" stroke-width="0.5" stroke-linecap="round" x1="13.875" y1="-51.75" x2="13.875" y2="-51.75"/>
				<line fill="none" stroke="#1D1D1B" stroke-width="0.5" stroke-linecap="round" x1="31.125" y1="-41.5" x2="31.125" y2="-41.5"/>
				
					<line fill="none" stroke="#1D1D1B" stroke-width="0.5" stroke-linecap="round" x1="28.125" y1="-36.75" x2="28.125" y2="-36.75"/>
				
					<line fill="none" stroke="#1D1D1B" stroke-width="0.5" stroke-linecap="round" x1="26.625" y1="-33.25" x2="26.625" y2="-33.25"/>
				<line fill="none" stroke="#1D1D1B" stroke-width="0.5" stroke-linecap="round" x1="23.375" y1="-31" x2="23.375" y2="-31"/>
				
					<line fill="none" stroke="#1D1D1B" stroke-width="0.5" stroke-linecap="round" x1="23.375" y1="-25.75" x2="23.375" y2="-25.75"/>
				<line fill="none" stroke="#1D1D1B" stroke-width="0.5" stroke-linecap="round" x1="14.625" y1="-25.5" x2="14.625" y2="-25.5"/>
				
					<line fill="none" stroke="#1D1D1B" stroke-width="0.5" stroke-linecap="round" x1="16.375" y1="-23.75" x2="16.375" y2="-23.75"/>
				
					<line fill="none" stroke="#1D1D1B" stroke-width="0.5" stroke-linecap="round" x1="21.625" y1="-21.75" x2="21.625" y2="-21.75"/>
				
					<line fill="none" stroke="#1D1D1B" stroke-width="0.5" stroke-linecap="round" x1="21.625" y1="-17.75" x2="21.625" y2="-17.75"/>
				
					<line fill="none" stroke="#1D1D1B" stroke-width="0.5" stroke-linecap="round" x1="26.125" y1="-13.75" x2="26.125" y2="-13.75"/>
				<line fill="none" stroke="#1D1D1B" stroke-width="0.5" stroke-linecap="round" x1="20.625" y1="-12.5" x2="20.625" y2="-12.5"/>
				<line fill="none" stroke="#1D1D1B" stroke-width="0.5" stroke-linecap="round" x1="16.625" y1="-8.75" x2="16.625" y2="-8.75"/>
				
					<line fill="none" stroke="#1D1D1B" stroke-width="0.5" stroke-linecap="round" x1="12.875" y1="-10.25" x2="12.875" y2="-10.25"/>
				<line fill="none" stroke="#1D1D1B" stroke-width="0.5" stroke-linecap="round" x1="17.875" y1="-4.5" x2="17.875" y2="-4.5"/>
				<line fill="none" stroke="#1D1D1B" stroke-width="0.5" stroke-linecap="round" x1="24.125" y1="-2.75" x2="24.125" y2="-2.75"/>
				<line fill="none" stroke="#1D1D1B" stroke-width="0.5" stroke-linecap="round" x1="24.125" y1="-6.5" x2="24.125" y2="-6.5"/>
				<line fill="none" stroke="#1D1D1B" stroke-width="0.5" stroke-linecap="round" x1="32.125" y1="-3.75" x2="32.125" y2="-3.75"/>
				<line fill="none" stroke="#1D1D1B" stroke-width="0.5" stroke-linecap="round" x1="33.625" y1="-6.5" x2="33.625" y2="-6.5"/>
				
					<line fill="none" stroke="#1D1D1B" stroke-width="0.5" stroke-linecap="round" x1="32.875" y1="-12.25" x2="32.875" y2="-12.25"/>
				
					<line fill="none" stroke="#1D1D1B" stroke-width="0.5" stroke-linecap="round" x1="34.875" y1="-14.75" x2="34.875" y2="-14.75"/>
				<line fill="none" stroke="#1D1D1B" stroke-width="0.5" stroke-linecap="round" x1="32.625" y1="-19" x2="32.625" y2="-19"/>
				<line fill="none" stroke="#1D1D1B" stroke-width="0.5" stroke-linecap="round" x1="36.875" y1="-24.5" x2="36.875" y2="-24.5"/>
				
					<line fill="none" stroke="#1D1D1B" stroke-width="0.5" stroke-linecap="round" x1="36.375" y1="-28.75" x2="36.375" y2="-28.75"/>
				
					<line fill="none" stroke="#1D1D1B" stroke-width="0.5" stroke-linecap="round" x1="41.875" y1="-34.75" x2="41.875" y2="-34.75"/>
				
					<line fill="none" stroke="#1D1D1B" stroke-width="0.5" stroke-linecap="round" x1="42.875" y1="-41.25" x2="42.875" y2="-41.25"/>
				
					<line fill="none" stroke="#1D1D1B" stroke-width="0.5" stroke-linecap="round" x1="36.625" y1="-38.25" x2="36.625" y2="-38.25"/>
				<line fill="none" stroke="#1D1D1B" stroke-width="0.5" stroke-linecap="round" x1="44.875" y1="-44.5" x2="44.875" y2="-44.5"/>
				
					<line fill="none" stroke="#1D1D1B" stroke-width="0.5" stroke-linecap="round" x1="47.875" y1="-43.75" x2="47.875" y2="-43.75"/>
				<line fill="none" stroke="#1D1D1B" stroke-width="0.5" stroke-linecap="round" x1="52.375" y1="-46.5" x2="52.375" y2="-46.5"/>
				<line fill="none" stroke="#1D1D1B" stroke-width="0.5" stroke-linecap="round" x1="53.625" y1="-51.5" x2="53.625" y2="-51.5"/>
				<line fill="none" stroke="#1D1D1B" stroke-width="0.5" stroke-linecap="round" x1="47.125" y1="-53" x2="47.125" y2="-53"/>
				<line fill="none" stroke="#1D1D1B" stroke-width="0.5" stroke-linecap="round" x1="38.375" y1="-50" x2="38.375" y2="-50"/>
				
					<line fill="none" stroke="#1D1D1B" stroke-width="0.5" stroke-linecap="round" x1="62.625" y1="-50.25" x2="62.625" y2="-50.25"/>
				<line fill="none" stroke="#1D1D1B" stroke-width="0.5" stroke-linecap="round" x1="53.875" y1="-54.5" x2="53.875" y2="-54.5"/>
				
					<line fill="none" stroke="#1D1D1B" stroke-width="0.5" stroke-linecap="round" x1="61.125" y1="-54.25" x2="61.125" y2="-54.25"/>
				<line fill="none" stroke="#1D1D1B" stroke-width="0.5" stroke-linecap="round" x1="70.125" y1="-55" x2="70.125" y2="-55"/>
				
					<line fill="none" stroke="#1D1D1B" stroke-width="0.5" stroke-linecap="round" x1="68.875" y1="-58.25" x2="68.875" y2="-58.25"/>
				
					<line fill="none" stroke="#1D1D1B" stroke-width="0.5" stroke-linecap="round" x1="72.125" y1="-61.25" x2="72.125" y2="-61.25"/>
				
					<line fill="none" stroke="#1D1D1B" stroke-width="0.5" stroke-linecap="round" x1="69.375" y1="-64.75" x2="69.375" y2="-64.75"/>
				<line fill="none" stroke="#1D1D1B" stroke-width="0.5" stroke-linecap="round" x1="70.625" y1="-67.5" x2="70.625" y2="-67.5"/>
				
					<line fill="none" stroke="#1D1D1B" stroke-width="0.5" stroke-linecap="round" x1="78.125" y1="-66.25" x2="78.125" y2="-66.25"/>
				
					<line fill="none" stroke="#1D1D1B" stroke-width="0.5" stroke-linecap="round" x1="80.125" y1="-64.25" x2="80.125" y2="-64.25"/>
				<line fill="none" stroke="#1D1D1B" stroke-width="0.5" stroke-linecap="round" x1="76.375" y1="-62.5" x2="76.375" y2="-62.5"/>
				
					<line fill="none" stroke="#1D1D1B" stroke-width="0.5" stroke-linecap="round" x1="72.375" y1="-55.75" x2="72.375" y2="-55.75"/>
				<line fill="none" stroke="#1D1D1B" stroke-width="0.5" stroke-linecap="round" x1="70.875" y1="-48.5" x2="70.875" y2="-48.5"/>
				<line fill="none" stroke="#1D1D1B" stroke-width="0.5" stroke-linecap="round" x1="66.125" y1="-48.5" x2="66.125" y2="-48.5"/>
				<line fill="none" stroke="#1D1D1B" stroke-width="0.5" stroke-linecap="round" x1="66.125" y1="-53.5" x2="66.125" y2="-53.5"/>
				<line fill="none" stroke="#1D1D1B" stroke-width="0.5" stroke-linecap="round" x1="75.625" y1="-46.5" x2="75.625" y2="-46.5"/>
				
					<line fill="none" stroke="#1D1D1B" stroke-width="0.5" stroke-linecap="round" x1="71.875" y1="-45.25" x2="71.875" y2="-45.25"/>
				<line fill="none" stroke="#1D1D1B" stroke-width="0.5" stroke-linecap="round" x1="68.375" y1="-41.5" x2="68.375" y2="-41.5"/>
				<line fill="none" stroke="#1D1D1B" stroke-width="0.5" stroke-linecap="round" x1="63.375" y1="-39.5" x2="63.375" y2="-39.5"/>
				<line fill="none" stroke="#1D1D1B" stroke-width="0.5" stroke-linecap="round" x1="58.125" y1="-38.5" x2="58.125" y2="-38.5"/>
				<line fill="none" stroke="#1D1D1B" stroke-width="0.5" stroke-linecap="round" x1="54.875" y1="-33" x2="54.875" y2="-33"/>
				
					<line fill="none" stroke="#1D1D1B" stroke-width="0.5" stroke-linecap="round" x1="44.625" y1="-30.75" x2="44.625" y2="-30.75"/>
				
					<line fill="none" stroke="#1D1D1B" stroke-width="0.5" stroke-linecap="round" x1="51.375" y1="-24.25" x2="51.375" y2="-24.25"/>
				<line fill="none" stroke="#1D1D1B" stroke-width="0.5" stroke-linecap="round" x1="56.375" y1="-20" x2="56.375" y2="-20"/>
				<line fill="none" stroke="#1D1D1B" stroke-width="0.5" stroke-linecap="round" x1="57.125" y1="-15.5" x2="57.125" y2="-15.5"/>
				
					<line fill="none" stroke="#1D1D1B" stroke-width="0.5" stroke-linecap="round" x1="52.625" y1="-12.75" x2="52.625" y2="-12.75"/>
				<line fill="none" stroke="#1D1D1B" stroke-width="0.5" stroke-linecap="round" x1="50.625" y1="-9.5" x2="50.625" y2="-9.5"/>
				<line fill="none" stroke="#1D1D1B" stroke-width="0.5" stroke-linecap="round" x1="46.625" y1="-9.5" x2="46.625" y2="-9.5"/>
				<line fill="none" stroke="#1D1D1B" stroke-width="0.5" stroke-linecap="round" x1="47.125" y1="-19.5" x2="47.125" y2="-19.5"/>
				<line fill="none" stroke="#1D1D1B" stroke-width="0.5" stroke-linecap="round" x1="40.625" y1="-8.75" x2="40.625" y2="-8.75"/>
				<line fill="none" stroke="#1D1D1B" stroke-width="0.5" stroke-linecap="round" x1="42.125" y1="-3.75" x2="42.125" y2="-3.75"/>
				<line fill="none" stroke="#1D1D1B" stroke-width="0.5" stroke-linecap="round" x1="47.625" y1="-1.25" x2="47.625" y2="-1.25"/>
				
					<line fill="none" stroke="#1D1D1B" stroke-width="0.5" stroke-linecap="round" x1="69.375" y1="-15.25" x2="69.375" y2="-15.25"/>
				
					<line fill="none" stroke="#1D1D1B" stroke-width="0.5" stroke-linecap="round" x1="73.625" y1="-15.25" x2="73.625" y2="-15.25"/>
				<line fill="none" stroke="#1D1D1B" stroke-width="0.5" stroke-linecap="round" x1="70.625" y1="-21.5" x2="70.625" y2="-21.5"/>
				
					<line fill="none" stroke="#1D1D1B" stroke-width="0.5" stroke-linecap="round" x1="65.125" y1="-21.75" x2="65.125" y2="-21.75"/>
				<line fill="none" stroke="#1D1D1B" stroke-width="0.5" stroke-linecap="round" x1="69.875" y1="-28" x2="69.875" y2="-28"/>
				<line fill="none" stroke="#1D1D1B" stroke-width="0.5" stroke-linecap="round" x1="65.375" y1="-30.5" x2="65.375" y2="-30.5"/>
				
					<line fill="none" stroke="#1D1D1B" stroke-width="0.5" stroke-linecap="round" x1="66.375" y1="-36.75" x2="66.375" y2="-36.75"/>
				<line fill="none" stroke="#1D1D1B" stroke-width="0.5" stroke-linecap="round" x1="73.125" y1="-30" x2="73.125" y2="-30"/>
				
					<line fill="none" stroke="#1D1D1B" stroke-width="0.5" stroke-linecap="round" x1="77.625" y1="-24.75" x2="77.625" y2="-24.75"/>
				<line fill="none" stroke="#1D1D1B" stroke-width="0.5" stroke-linecap="round" x1="80.125" y1="-18" x2="80.125" y2="-18"/>
				<line fill="none" stroke="#1D1D1B" stroke-width="0.5" stroke-linecap="round" x1="74.125" y1="-10.5" x2="74.125" y2="-10.5"/>
				<line fill="none" stroke="#1D1D1B" stroke-width="0.5" stroke-linecap="round" x1="79.875" y1="-8.75" x2="79.875" y2="-8.75"/>
				<line fill="none" stroke="#1D1D1B" stroke-width="0.5" stroke-linecap="round" x1="75.375" y1="-6.75" x2="75.375" y2="-6.75"/>
				<line fill="none" stroke="#1D1D1B" stroke-width="0.5" stroke-linecap="round" x1="76.375" y1="-4" x2="76.375" y2="-4"/>
				<line fill="none" stroke="#1D1D1B" stroke-width="0.5" stroke-linecap="round" x1="79.875" y1="-1.75" x2="79.875" y2="-1.75"/>
				<line fill="none" stroke="#1D1D1B" stroke-width="0.5" stroke-linecap="round" x1="73.125" y1="-2" x2="73.125" y2="-2"/>
				<line fill="none" stroke="#1D1D1B" stroke-width="0.5" stroke-linecap="round" x1="71.375" y1="-6.5" x2="71.375" y2="-6.5"/>
				<line fill="none" stroke="#1D1D1B" stroke-width="0.5" stroke-linecap="round" x1="63.375" y1="-2.5" x2="63.375" y2="-2.5"/>
				<line fill="none" stroke="#1D1D1B" stroke-width="0.5" stroke-linecap="round" x1="55.375" y1="-5.75" x2="55.375" y2="-5.75"/>
				<line fill="none" stroke="#1D1D1B" stroke-width="0.5" stroke-linecap="round" x1="55.125" y1="-1" x2="55.125" y2="-1"/>
				<line fill="none" stroke="#1D1D1B" stroke-width="0.5" stroke-linecap="round" x1="39.125" y1="-1" x2="39.125" y2="-1"/>
				
					<line fill="none" stroke="#1D1D1B" stroke-width="0.5" stroke-linecap="round" x1="11.375" y1="-42.75" x2="11.375" y2="-42.75"/>
				
					<line fill="none" stroke="#1D1D1B" stroke-width="0.5" stroke-linecap="round" x1="35.125" y1="-71.25" x2="35.125" y2="-71.25"/>
				
					<line fill="none" stroke="#1D1D1B" stroke-width="0.5" stroke-linecap="round" x1="23.875" y1="-67.25" x2="23.875" y2="-67.25"/>
				<line fill="none" stroke="#1D1D1B" stroke-width="0.5" stroke-linecap="round" x1="81.625" y1="-37" x2="81.625" y2="-37"/>
				<path fill="none" stroke="#1D1D1B" stroke-width="0.5" stroke-linecap="round" d="M0.625-61.625C0.832-61.625,1-61.792,1-62
					c0-0.207-0.168-0.375-0.375-0.375c-0.208,0-0.375,0.168-0.375,0.375C0.25-61.792,0.417-61.625,0.625-61.625z"/>
			</g>
		</g>
	</g>
</pattern>
<circle fill="#FFE5AA" cx="31.666" cy="37" r="28.75"/>
<pattern  id="SVGID_2_" xlink:href="#SVGID_1_" patternTransform="matrix(1 0 0 1 -453.248 17899)">
</pattern>
<circle fill="url(#SVGID_2_)" cx="38.416" cy="31.041" r="18.25"/>
<circle fill="none" stroke="#FFFFFF" stroke-miterlimit="10" cx="34.325" cy="38.974" r="28.75"/>
<path fill="none" stroke="#FFFFFF" stroke-miterlimit="10" d="M45.075,18.75c1.248-0.584,2.765-3.203,3.74-4.229
	c2.741-2.886,7.492-6.375,11.76-6.146"/>
<path fill="none" stroke="#FFFFFF" stroke-width="0.25" stroke-miterlimit="10" d="M51.052,11.828
	c-0.021-2.181-1.35-4.906-2.819-6.83c-1.154-1.51-3.113-3.472-5.084-3.584c-0.052,1.411-0.575,2.799-0.602,4.192
	c-0.03,1.766,1.145,4.021,2.445,5.193c1.221,1.099,3.972,2.415,5.643,1.863"/>
</svg>
